<?xml version="1.0" encoding="UTF-8" standalone="no"?>
<!DOCTYPE svg PUBLIC "-//W3C//DTD SVG 1.1//EN"
 "http://www.w3.org/Graphics/SVG/1.1/DTD/svg11.dtd">
<!-- Generated by graphviz version 3.0.0 (20220226.1711)
 -->
<!-- Title: dependencies Pages: 1 -->
<svg width="2269pt" height="247pt"
 viewBox="0.00 0.00 2269.00 246.80" xmlns="http://www.w3.org/2000/svg" xmlns:xlink="http://www.w3.org/1999/xlink">
<g id="graph0" class="graph" transform="scale(1 1) rotate(0) translate(4 242.8)">
<title>dependencies</title>
<polygon fill="white" stroke="transparent" points="-4,4 -4,-242.8 2265,-242.8 2265,4 -4,4"/>
<text text-anchor="middle" x="1130.5" y="-8.2" font-family="sans-serif" font-size="14.00">dependencies</text>
<g id="clust1" class="cluster">
<title>cluster_SharedModule</title>
<polygon fill="none" stroke="black" stroke-dasharray="1,5" points="8,-32.8 8,-230.8 2253,-230.8 2253,-32.8 8,-32.8"/>
</g>
<g id="clust16" class="cluster">
<title>cluster_SharedModule_exports</title>
<polygon fill="none" stroke="black" points="16,-170.8 16,-222.8 2245,-222.8 2245,-170.8 16,-170.8"/>
</g>
<g id="clust2" class="cluster">
<title>cluster_SharedModule_declarations</title>
<polygon fill="none" stroke="black" points="41,-40.8 41,-92.8 2229,-92.8 2229,-40.8 41,-40.8"/>
</g>
<!-- ConfirmationDialogComponent -->
<g id="node1" class="node">
<title>ConfirmationDialogComponent</title>
<polygon fill="#ffffb3" stroke="black" points="2221.37,-84.8 2026.63,-84.8 2026.63,-48.8 2221.37,-48.8 2221.37,-84.8"/>
<text text-anchor="middle" x="2124" y="-62.6" font-family="Times,serif" font-size="14.00">ConfirmationDialogComponent</text>
</g>
<!-- SharedModule -->
<g id="node13" class="node">
<title>SharedModule</title>
<polygon fill="#8dd3c7" stroke="black" points="1124.43,-149.8 1121.43,-153.8 1100.43,-153.8 1097.43,-149.8 1025.57,-149.8 1025.57,-113.8 1124.43,-113.8 1124.43,-149.8"/>
<text text-anchor="middle" x="1075" y="-127.6" font-family="Times,serif" font-size="14.00">SharedModule</text>
</g>
<!-- ConfirmationDialogComponent&#45;&gt;SharedModule -->
<g id="edge1" class="edge">
<title>ConfirmationDialogComponent&#45;&gt;SharedModule</title>
<path fill="none" stroke="black" d="M2032.69,-84.97C2032.69,-103.89 2032.69,-130.8 2032.69,-130.8 2032.69,-130.8 1134.47,-130.8 1134.47,-130.8"/>
<polygon fill="black" stroke="black" points="1134.47,-127.3 1124.47,-130.8 1134.47,-134.3 1134.47,-127.3"/>
</g>
<!-- EmrCheckboxComponent -->
<g id="node2" class="node">
<title>EmrCheckboxComponent</title>
<polygon fill="#ffffb3" stroke="black" points="2008.2,-84.8 1845.8,-84.8 1845.8,-48.8 2008.2,-48.8 2008.2,-84.8"/>
<text text-anchor="middle" x="1927" y="-62.6" font-family="Times,serif" font-size="14.00">EmrCheckboxComponent</text>
</g>
<!-- EmrCheckboxComponent&#45;&gt;SharedModule -->
<g id="edge2" class="edge">
<title>EmrCheckboxComponent&#45;&gt;SharedModule</title>
<path fill="none" stroke="black" d="M1850.52,-85.1C1850.52,-103.07 1850.52,-127.8 1850.52,-127.8 1850.52,-127.8 1134.4,-127.8 1134.4,-127.8"/>
<polygon fill="black" stroke="black" points="1134.4,-124.3 1124.4,-127.8 1134.4,-131.3 1134.4,-124.3"/>
</g>
<!-- EmrCheckboxGroupComponent -->
<g id="node3" class="node">
<title>EmrCheckboxGroupComponent</title>
<polygon fill="#ffffb3" stroke="black" points="1827.97,-84.8 1630.03,-84.8 1630.03,-48.8 1827.97,-48.8 1827.97,-84.8"/>
<text text-anchor="middle" x="1729" y="-62.6" font-family="Times,serif" font-size="14.00">EmrCheckboxGroupComponent</text>
</g>
<!-- EmrCheckboxGroupComponent&#45;&gt;SharedModule -->
<g id="edge3" class="edge">
<title>EmrCheckboxGroupComponent&#45;&gt;SharedModule</title>
<path fill="none" stroke="black" d="M1763.75,-84.82C1763.75,-102.17 1763.75,-125.8 1763.75,-125.8 1763.75,-125.8 1134.26,-125.8 1134.26,-125.8"/>
<polygon fill="black" stroke="black" points="1134.26,-122.3 1124.26,-125.8 1134.26,-129.3 1134.26,-122.3"/>
</g>
<!-- EmrDialogComponent -->
<g id="node4" class="node">
<title>EmrDialogComponent</title>
<polygon fill="#ffffb3" stroke="black" points="1611.54,-84.8 1468.46,-84.8 1468.46,-48.8 1611.54,-48.8 1611.54,-84.8"/>
<text text-anchor="middle" x="1540" y="-62.6" font-family="Times,serif" font-size="14.00">EmrDialogComponent</text>
</g>
<!-- EmrDialogComponent&#45;&gt;SharedModule -->
<g id="edge4" class="edge">
<title>EmrDialogComponent&#45;&gt;SharedModule</title>
<path fill="none" stroke="black" d="M1564.67,-84.83C1564.67,-101.2 1564.67,-122.8 1564.67,-122.8 1564.67,-122.8 1134.65,-122.8 1134.65,-122.8"/>
<polygon fill="black" stroke="black" points="1134.65,-119.3 1124.65,-122.8 1134.65,-126.3 1134.65,-119.3"/>
</g>
<!-- EmrInputComponent -->
<g id="node5" class="node">
<title>EmrInputComponent</title>
<polygon fill="#ffffb3" stroke="black" points="1450.49,-84.8 1315.51,-84.8 1315.51,-48.8 1450.49,-48.8 1450.49,-84.8"/>
<text text-anchor="middle" x="1383" y="-62.6" font-family="Times,serif" font-size="14.00">EmrInputComponent</text>
</g>
<!-- EmrInputComponent&#45;&gt;SharedModule -->
<g id="edge5" class="edge">
<title>EmrInputComponent&#45;&gt;SharedModule</title>
<path fill="none" stroke="black" d="M1360.5,-85.04C1360.5,-100.37 1360.5,-119.8 1360.5,-119.8 1360.5,-119.8 1134.4,-119.8 1134.4,-119.8"/>
<polygon fill="black" stroke="black" points="1134.4,-116.3 1124.4,-119.8 1134.4,-123.3 1134.4,-116.3"/>
</g>
<!-- EmrListComponent -->
<g id="node6" class="node">
<title>EmrListComponent</title>
<polygon fill="#ffffb3" stroke="black" points="1297.71,-84.8 1170.29,-84.8 1170.29,-48.8 1297.71,-48.8 1297.71,-84.8"/>
<text text-anchor="middle" x="1234" y="-62.6" font-family="Times,serif" font-size="14.00">EmrListComponent</text>
</g>
<!-- EmrListComponent&#45;&gt;SharedModule -->
<g id="edge6" class="edge">
<title>EmrListComponent&#45;&gt;SharedModule</title>
<path fill="none" stroke="black" d="M1212.05,-84.85C1212.05,-99.17 1212.05,-116.8 1212.05,-116.8 1212.05,-116.8 1134.48,-116.8 1134.48,-116.8"/>
<polygon fill="black" stroke="black" points="1134.48,-113.3 1124.48,-116.8 1134.48,-120.3 1134.48,-113.3"/>
</g>
<!-- ExpansionPanelComponent -->
<g id="node7" class="node">
<title>ExpansionPanelComponent</title>
<polygon fill="#ffffb3" stroke="black" points="1152.54,-84.8 981.46,-84.8 981.46,-48.8 1152.54,-48.8 1152.54,-84.8"/>
<text text-anchor="middle" x="1067" y="-62.6" font-family="Times,serif" font-size="14.00">ExpansionPanelComponent</text>
</g>
<!-- ExpansionPanelComponent&#45;&gt;SharedModule -->
<g id="edge7" class="edge">
<title>ExpansionPanelComponent&#45;&gt;SharedModule</title>
<path fill="none" stroke="black" d="M1075,-84.91C1075,-84.91 1075,-103.79 1075,-103.79"/>
<polygon fill="black" stroke="black" points="1071.5,-103.79 1075,-113.79 1078.5,-103.79 1071.5,-103.79"/>
</g>
<!-- FileUploadDialogComponent -->
<g id="node8" class="node">
<title>FileUploadDialogComponent</title>
<polygon fill="#ffffb3" stroke="black" points="963.43,-84.8 780.57,-84.8 780.57,-48.8 963.43,-48.8 963.43,-84.8"/>
<text text-anchor="middle" x="872" y="-62.6" font-family="Times,serif" font-size="14.00">FileUploadDialogComponent</text>
</g>
<!-- FileUploadDialogComponent&#45;&gt;SharedModule -->
<g id="edge8" class="edge">
<title>FileUploadDialogComponent&#45;&gt;SharedModule</title>
<path fill="none" stroke="black" d="M958.59,-84.92C958.59,-99.58 958.59,-117.8 958.59,-117.8 958.59,-117.8 1015.63,-117.8 1015.63,-117.8"/>
<polygon fill="black" stroke="black" points="1015.63,-121.3 1025.63,-117.8 1015.63,-114.3 1015.63,-121.3"/>
</g>
<!-- HtmlDialogComponent -->
<g id="node9" class="node">
<title>HtmlDialogComponent</title>
<polygon fill="#ffffb3" stroke="black" points="763.21,-84.8 614.79,-84.8 614.79,-48.8 763.21,-48.8 763.21,-84.8"/>
<text text-anchor="middle" x="689" y="-62.6" font-family="Times,serif" font-size="14.00">HtmlDialogComponent</text>
</g>
<!-- HtmlDialogComponent&#45;&gt;SharedModule -->
<g id="edge9" class="edge">
<title>HtmlDialogComponent&#45;&gt;SharedModule</title>
<path fill="none" stroke="black" d="M756.48,-85.08C756.48,-100.75 756.48,-120.8 756.48,-120.8 756.48,-120.8 1015.58,-120.8 1015.58,-120.8"/>
<polygon fill="black" stroke="black" points="1015.58,-124.3 1025.58,-120.8 1015.58,-117.3 1015.58,-124.3"/>
</g>
<!-- LoginDialogComponent -->
<g id="node10" class="node">
<title>LoginDialogComponent</title>
<polygon fill="#ffffb3" stroke="black" points="596.38,-84.8 443.62,-84.8 443.62,-48.8 596.38,-48.8 596.38,-84.8"/>
<text text-anchor="middle" x="520" y="-62.6" font-family="Times,serif" font-size="14.00">LoginDialogComponent</text>
</g>
<!-- LoginDialogComponent&#45;&gt;SharedModule -->
<g id="edge10" class="edge">
<title>LoginDialogComponent&#45;&gt;SharedModule</title>
<path fill="none" stroke="black" d="M588.31,-84.84C588.31,-101.53 588.31,-123.8 588.31,-123.8 588.31,-123.8 1015.66,-123.8 1015.66,-123.8"/>
<polygon fill="black" stroke="black" points="1015.66,-127.3 1025.66,-123.8 1015.66,-120.3 1015.66,-127.3"/>
</g>
<!-- PasswordInputComponent -->
<g id="node11" class="node">
<title>PasswordInputComponent</title>
<polygon fill="#ffffb3" stroke="black" points="425.05,-84.8 260.95,-84.8 260.95,-48.8 425.05,-48.8 425.05,-84.8"/>
<text text-anchor="middle" x="343" y="-62.6" font-family="Times,serif" font-size="14.00">PasswordInputComponent</text>
</g>
<!-- PasswordInputComponent&#45;&gt;SharedModule -->
<g id="edge11" class="edge">
<title>PasswordInputComponent&#45;&gt;SharedModule</title>
<path fill="none" stroke="black" d="M414.92,-85.1C414.92,-103.07 414.92,-127.8 414.92,-127.8 414.92,-127.8 1015.66,-127.8 1015.66,-127.8"/>
<polygon fill="black" stroke="black" points="1015.66,-131.3 1025.66,-127.8 1015.66,-124.3 1015.66,-131.3"/>
</g>
<!-- UniqueEntryValidatorDirective -->
<g id="node12" class="node">
<title>UniqueEntryValidatorDirective</title>
<polygon fill="#ffffb3" stroke="black" points="242.77,-84.8 49.23,-84.8 49.23,-48.8 242.77,-48.8 242.77,-84.8"/>
<text text-anchor="middle" x="146" y="-62.6" font-family="Times,serif" font-size="14.00">UniqueEntryValidatorDirective</text>
</g>
<!-- UniqueEntryValidatorDirective&#45;&gt;SharedModule -->
<g id="edge12" class="edge">
<title>UniqueEntryValidatorDirective&#45;&gt;SharedModule</title>
<path fill="none" stroke="black" d="M229.18,-84.97C229.18,-103.89 229.18,-130.8 229.18,-130.8 229.18,-130.8 1015.56,-130.8 1015.56,-130.8"/>
<polygon fill="black" stroke="black" points="1015.56,-134.3 1025.56,-130.8 1015.56,-127.3 1015.56,-134.3"/>
</g>
<!-- ConfirmationDialogComponent  -->
<g id="node14" class="node">
<title>ConfirmationDialogComponent </title>
<polygon fill="#fb8072" stroke="black" points="2237.37,-214.8 2038.63,-214.8 2038.63,-178.8 2237.37,-178.8 2237.37,-214.8"/>
<text text-anchor="middle" x="2138" y="-192.6" font-family="Times,serif" font-size="14.00">ConfirmationDialogComponent </text>
</g>
<!-- SharedModule&#45;&gt;ConfirmationDialogComponent  -->
<g id="edge13" class="edge">
<title>SharedModule&#45;&gt;ConfirmationDialogComponent </title>
<path fill="none" stroke="black" stroke-dasharray="5,2" d="M1124.48,-133.8C1333.08,-133.8 2130.12,-133.8 2130.12,-133.8 2130.12,-133.8 2130.12,-168.58 2130.12,-168.58"/>
<polygon fill="black" stroke="black" points="2126.63,-168.58 2130.12,-178.58 2133.63,-168.58 2126.63,-168.58"/>
</g>
<!-- EmrCheckboxComponent  -->
<g id="node15" class="node">
<title>EmrCheckboxComponent </title>
<polygon fill="#fb8072" stroke="black" points="2020.7,-214.8 1855.3,-214.8 1855.3,-178.8 2020.7,-178.8 2020.7,-214.8"/>
<text text-anchor="middle" x="1938" y="-192.6" font-family="Times,serif" font-size="14.00">EmrCheckboxComponent </text>
</g>
<!-- SharedModule&#45;&gt;EmrCheckboxComponent  -->
<g id="edge14" class="edge">
<title>SharedModule&#45;&gt;EmrCheckboxComponent </title>
<path fill="none" stroke="black" stroke-dasharray="5,2" d="M1124.45,-136.8C1306.87,-136.8 1931.62,-136.8 1931.62,-136.8 1931.62,-136.8 1931.62,-168.8 1931.62,-168.8"/>
<polygon fill="black" stroke="black" points="1928.13,-168.8 1931.62,-178.8 1935.13,-168.8 1928.13,-168.8"/>
</g>
<!-- EmrCheckboxGroupComponent  -->
<g id="node16" class="node">
<title>EmrCheckboxGroupComponent </title>
<polygon fill="#fb8072" stroke="black" points="1836.97,-214.8 1635.03,-214.8 1635.03,-178.8 1836.97,-178.8 1836.97,-214.8"/>
<text text-anchor="middle" x="1736" y="-192.6" font-family="Times,serif" font-size="14.00">EmrCheckboxGroupComponent </text>
</g>
<!-- SharedModule&#45;&gt;EmrCheckboxGroupComponent  -->
<g id="edge15" class="edge">
<title>SharedModule&#45;&gt;EmrCheckboxGroupComponent </title>
<path fill="none" stroke="black" stroke-dasharray="5,2" d="M1124.26,-138.8C1271.73,-138.8 1699.5,-138.8 1699.5,-138.8 1699.5,-138.8 1699.5,-168.77 1699.5,-168.77"/>
<polygon fill="black" stroke="black" points="1696,-168.77 1699.5,-178.77 1703,-168.77 1696,-168.77"/>
</g>
<!-- EmrDialogComponent  -->
<g id="node17" class="node">
<title>EmrDialogComponent </title>
<polygon fill="#fb8072" stroke="black" points="1617.54,-214.8 1470.46,-214.8 1470.46,-178.8 1617.54,-178.8 1617.54,-214.8"/>
<text text-anchor="middle" x="1544" y="-192.6" font-family="Times,serif" font-size="14.00">EmrDialogComponent </text>
</g>
<!-- SharedModule&#45;&gt;EmrDialogComponent  -->
<g id="edge16" class="edge">
<title>SharedModule&#45;&gt;EmrDialogComponent </title>
<path fill="none" stroke="black" stroke-dasharray="5,2" d="M1124.48,-141.8C1239.97,-141.8 1517.58,-141.8 1517.58,-141.8 1517.58,-141.8 1517.58,-168.79 1517.58,-168.79"/>
<polygon fill="black" stroke="black" points="1514.08,-168.79 1517.58,-178.79 1521.08,-168.79 1514.08,-168.79"/>
</g>
<!-- EmrInputComponent  -->
<g id="node18" class="node">
<title>EmrInputComponent </title>
<polygon fill="#fb8072" stroke="black" points="1452.49,-214.8 1313.51,-214.8 1313.51,-178.8 1452.49,-178.8 1452.49,-214.8"/>
<text text-anchor="middle" x="1383" y="-192.6" font-family="Times,serif" font-size="14.00">EmrInputComponent </text>
</g>
<!-- SharedModule&#45;&gt;EmrInputComponent  -->
<g id="edge17" class="edge">
<title>SharedModule&#45;&gt;EmrInputComponent </title>
<path fill="none" stroke="black" stroke-dasharray="5,2" d="M1124.48,-144.8C1216.68,-144.8 1405.5,-144.8 1405.5,-144.8 1405.5,-144.8 1405.5,-168.61 1405.5,-168.61"/>
<polygon fill="black" stroke="black" points="1402,-168.61 1405.5,-178.61 1409,-168.61 1402,-168.61"/>
</g>
<!-- EmrListComponent  -->
<g id="node19" class="node">
<title>EmrListComponent </title>
<polygon fill="#fb8072" stroke="black" points="1295.21,-214.8 1164.79,-214.8 1164.79,-178.8 1295.21,-178.8 1295.21,-214.8"/>
<text text-anchor="middle" x="1230" y="-192.6" font-family="Times,serif" font-size="14.00">EmrListComponent </text>
</g>
<!-- SharedModule&#45;&gt;EmrListComponent  -->
<g id="edge18" class="edge">
<title>SharedModule&#45;&gt;EmrListComponent </title>
<path fill="none" stroke="black" stroke-dasharray="5,2" d="M1124.3,-147.8C1177.2,-147.8 1253.7,-147.8 1253.7,-147.8 1253.7,-147.8 1253.7,-168.55 1253.7,-168.55"/>
<polygon fill="black" stroke="black" points="1250.2,-168.55 1253.7,-178.55 1257.2,-168.55 1250.2,-168.55"/>
</g>
<!-- ExpansionPanelComponent  -->
<g id="node20" class="node">
<title>ExpansionPanelComponent </title>
<polygon fill="#fb8072" stroke="black" points="1146.54,-214.8 971.46,-214.8 971.46,-178.8 1146.54,-178.8 1146.54,-214.8"/>
<text text-anchor="middle" x="1059" y="-192.6" font-family="Times,serif" font-size="14.00">ExpansionPanelComponent </text>
</g>
<!-- SharedModule&#45;&gt;ExpansionPanelComponent  -->
<g id="edge19" class="edge">
<title>SharedModule&#45;&gt;ExpansionPanelComponent </title>
<path fill="none" stroke="black" stroke-dasharray="5,2" d="M1075,-149.91C1075,-149.91 1075,-168.79 1075,-168.79"/>
<polygon fill="black" stroke="black" points="1071.5,-168.79 1075,-178.79 1078.5,-168.79 1071.5,-168.79"/>
</g>
<!-- FileUploadDialogComponent  -->
<g id="node21" class="node">
<title>FileUploadDialogComponent </title>
<polygon fill="#fb8072" stroke="black" points="953.93,-214.8 768.07,-214.8 768.07,-178.8 953.93,-178.8 953.93,-214.8"/>
<text text-anchor="middle" x="861" y="-192.6" font-family="Times,serif" font-size="14.00">FileUploadDialogComponent </text>
</g>
<!-- SharedModule&#45;&gt;FileUploadDialogComponent  -->
<g id="edge20" class="edge">
<title>SharedModule&#45;&gt;FileUploadDialogComponent </title>
<path fill="none" stroke="black" stroke-dasharray="5,2" d="M1025.53,-146.8C964.12,-146.8 867.38,-146.8 867.38,-146.8 867.38,-146.8 867.38,-168.75 867.38,-168.75"/>
<polygon fill="black" stroke="black" points="863.88,-168.75 867.38,-178.75 870.88,-168.75 863.88,-168.75"/>
</g>
<!-- HtmlDialogComponent  -->
<g id="node22" class="node">
<title>HtmlDialogComponent </title>
<polygon fill="#fb8072" stroke="black" points="749.71,-214.8 598.29,-214.8 598.29,-178.8 749.71,-178.8 749.71,-214.8"/>
<text text-anchor="middle" x="674" y="-192.6" font-family="Times,serif" font-size="14.00">HtmlDialogComponent </text>
</g>
<!-- SharedModule&#45;&gt;HtmlDialogComponent  -->
<g id="edge21" class="edge">
<title>SharedModule&#45;&gt;HtmlDialogComponent </title>
<path fill="none" stroke="black" stroke-dasharray="5,2" d="M1025.67,-143.8C920.22,-143.8 682.38,-143.8 682.38,-143.8 682.38,-143.8 682.38,-168.56 682.38,-168.56"/>
<polygon fill="black" stroke="black" points="678.88,-168.56 682.38,-178.56 685.88,-168.56 678.88,-168.56"/>
</g>
<!-- LoginDialogComponent  -->
<g id="node23" class="node">
<title>LoginDialogComponent </title>
<polygon fill="#fb8072" stroke="black" points="580.38,-214.8 423.62,-214.8 423.62,-178.8 580.38,-178.8 580.38,-214.8"/>
<text text-anchor="middle" x="502" y="-192.6" font-family="Times,serif" font-size="14.00">LoginDialogComponent </text>
</g>
<!-- SharedModule&#45;&gt;LoginDialogComponent  -->
<g id="edge22" class="edge">
<title>SharedModule&#45;&gt;LoginDialogComponent </title>
<path fill="none" stroke="black" stroke-dasharray="5,2" d="M1025.52,-140.8C888.11,-140.8 511.88,-140.8 511.88,-140.8 511.88,-140.8 511.88,-168.77 511.88,-168.77"/>
<polygon fill="black" stroke="black" points="508.38,-168.77 511.88,-178.77 515.38,-168.77 508.38,-168.77"/>
</g>
<!-- PasswordInputComponent  -->
<g id="node24" class="node">
<title>PasswordInputComponent </title>
<polygon fill="#fb8072" stroke="black" points="406.05,-214.8 237.95,-214.8 237.95,-178.8 406.05,-178.8 406.05,-214.8"/>
<text text-anchor="middle" x="322" y="-192.6" font-family="Times,serif" font-size="14.00">PasswordInputComponent </text>
</g>
<!-- SharedModule&#45;&gt;PasswordInputComponent  -->
<g id="edge23" class="edge">
<title>SharedModule&#45;&gt;PasswordInputComponent </title>
<path fill="none" stroke="black" stroke-dasharray="5,2" d="M1025.77,-136.8C860.13,-136.8 333.38,-136.8 333.38,-136.8 333.38,-136.8 333.38,-168.8 333.38,-168.8"/>
<polygon fill="black" stroke="black" points="329.88,-168.8 333.38,-178.8 336.88,-168.8 329.88,-168.8"/>
</g>
<!-- UniqueEntryValidatorDirective  -->
<g id="node25" class="node">
<title>UniqueEntryValidatorDirective </title>
<polygon fill="#fb8072" stroke="black" points="220.27,-214.8 23.73,-214.8 23.73,-178.8 220.27,-178.8 220.27,-214.8"/>
<text text-anchor="middle" x="122" y="-192.6" font-family="Times,serif" font-size="14.00">UniqueEntryValidatorDirective </text>
</g>
<!-- SharedModule&#45;&gt;UniqueEntryValidatorDirective  -->
<g id="edge24" class="edge">
<title>SharedModule&#45;&gt;UniqueEntryValidatorDirective </title>
<path fill="none" stroke="black" stroke-dasharray="5,2" d="M1025.78,-133.8C832.34,-133.8 134.88,-133.8 134.88,-133.8 134.88,-133.8 134.88,-168.58 134.88,-168.58"/>
<polygon fill="black" stroke="black" points="131.38,-168.58 134.88,-178.58 138.38,-168.58 131.38,-168.58"/>
</g>
</g>
</svg>
