<?xml version="1.0" encoding="UTF-8" standalone="no"?>
<!DOCTYPE svg PUBLIC "-//W3C//DTD SVG 1.1//EN"
 "http://www.w3.org/Graphics/SVG/1.1/DTD/svg11.dtd">
<!-- Generated by graphviz version 3.0.0 (20220226.1711)
 -->
<!-- Title: dependencies Pages: 1 -->
<svg width="1211pt" height="247pt"
 viewBox="0.00 0.00 1211.00 246.80" xmlns="http://www.w3.org/2000/svg" xmlns:xlink="http://www.w3.org/1999/xlink">
<g id="graph0" class="graph" transform="scale(1 1) rotate(0) translate(4 242.8)">
<title>dependencies</title>
<polygon fill="white" stroke="transparent" points="-4,4 -4,-242.8 1207,-242.8 1207,4 -4,4"/>
<text text-anchor="middle" x="601.5" y="-8.2" font-family="sans-serif" font-size="14.00">dependencies</text>
<g id="clust1" class="cluster">
<title>cluster_SettingsModule</title>
<polygon fill="none" stroke="black" stroke-dasharray="1,5" points="8,-32.8 8,-230.8 1195,-230.8 1195,-32.8 8,-32.8"/>
</g>
<g id="clust8" class="cluster">
<title>cluster_SettingsModule_imports</title>
<polygon fill="none" stroke="black" points="905,-40.8 905,-92.8 1187,-92.8 1187,-40.8 905,-40.8"/>
</g>
<g id="clust9" class="cluster">
<title>cluster_SettingsModule_exports</title>
<polygon fill="none" stroke="black" points="173,-170.8 173,-222.8 1073,-222.8 1073,-170.8 173,-170.8"/>
</g>
<g id="clust2" class="cluster">
<title>cluster_SettingsModule_declarations</title>
<polygon fill="none" stroke="black" points="16,-40.8 16,-92.8 897,-92.8 897,-40.8 16,-40.8"/>
</g>
<!-- ChangePasswordComponent -->
<g id="node1" class="node">
<title>ChangePasswordComponent</title>
<polygon fill="#ffffb3" stroke="black" points="888.77,-84.8 711.23,-84.8 711.23,-48.8 888.77,-48.8 888.77,-84.8"/>
<text text-anchor="middle" x="800" y="-62.6" font-family="Times,serif" font-size="14.00">ChangePasswordComponent</text>
</g>
<!-- SettingsModule -->
<g id="node6" class="node">
<title>SettingsModule</title>
<polygon fill="#8dd3c7" stroke="black" points="682.17,-149.8 679.17,-153.8 658.17,-153.8 655.17,-149.8 577.83,-149.8 577.83,-113.8 682.17,-113.8 682.17,-149.8"/>
<text text-anchor="middle" x="630" y="-127.6" font-family="Times,serif" font-size="14.00">SettingsModule</text>
</g>
<!-- ChangePasswordComponent&#45;&gt;SettingsModule -->
<g id="edge1" class="edge">
<title>ChangePasswordComponent&#45;&gt;SettingsModule</title>
<path fill="none" stroke="black" d="M726.08,-85.04C726.08,-100.37 726.08,-119.8 726.08,-119.8 726.08,-119.8 692.26,-119.8 692.26,-119.8"/>
<polygon fill="black" stroke="black" points="692.26,-116.3 682.26,-119.8 692.26,-123.3 692.26,-116.3"/>
</g>
<!-- SettingsComponent -->
<g id="node2" class="node">
<title>SettingsComponent</title>
<polygon fill="#ffffb3" stroke="black" points="693.45,-84.8 566.55,-84.8 566.55,-48.8 693.45,-48.8 693.45,-84.8"/>
<text text-anchor="middle" x="630" y="-62.6" font-family="Times,serif" font-size="14.00">SettingsComponent</text>
</g>
<!-- SettingsComponent&#45;&gt;SettingsModule -->
<g id="edge2" class="edge">
<title>SettingsComponent&#45;&gt;SettingsModule</title>
<path fill="none" stroke="black" d="M630,-84.91C630,-84.91 630,-103.79 630,-103.79"/>
<polygon fill="black" stroke="black" points="626.5,-103.79 630,-113.79 633.5,-103.79 626.5,-103.79"/>
</g>
<!-- SettingsGeneralComponent -->
<g id="node3" class="node">
<title>SettingsGeneralComponent</title>
<polygon fill="#ffffb3" stroke="black" points="548.25,-84.8 377.75,-84.8 377.75,-48.8 548.25,-48.8 548.25,-84.8"/>
<text text-anchor="middle" x="463" y="-62.6" font-family="Times,serif" font-size="14.00">SettingsGeneralComponent</text>
</g>
<!-- SettingsGeneralComponent&#45;&gt;SettingsModule -->
<g id="edge3" class="edge">
<title>SettingsGeneralComponent&#45;&gt;SettingsModule</title>
<path fill="none" stroke="black" d="M533.73,-85.04C533.73,-100.37 533.73,-119.8 533.73,-119.8 533.73,-119.8 567.64,-119.8 567.64,-119.8"/>
<polygon fill="black" stroke="black" points="567.64,-123.3 577.64,-119.8 567.64,-116.3 567.64,-123.3"/>
</g>
<!-- SettingsHelpComponent -->
<g id="node4" class="node">
<title>SettingsHelpComponent</title>
<polygon fill="#ffffb3" stroke="black" points="359.66,-84.8 206.34,-84.8 206.34,-48.8 359.66,-48.8 359.66,-84.8"/>
<text text-anchor="middle" x="283" y="-62.6" font-family="Times,serif" font-size="14.00">SettingsHelpComponent</text>
</g>
<!-- SettingsHelpComponent&#45;&gt;SettingsModule -->
<g id="edge4" class="edge">
<title>SettingsHelpComponent&#45;&gt;SettingsModule</title>
<path fill="none" stroke="black" d="M354.43,-84.82C354.43,-102.17 354.43,-125.8 354.43,-125.8 354.43,-125.8 567.52,-125.8 567.52,-125.8"/>
<polygon fill="black" stroke="black" points="567.52,-129.3 577.52,-125.8 567.52,-122.3 567.52,-129.3"/>
</g>
<!-- SettingsProfileComponent -->
<g id="node5" class="node">
<title>SettingsProfileComponent</title>
<polygon fill="#ffffb3" stroke="black" points="188.05,-84.8 23.95,-84.8 23.95,-48.8 188.05,-48.8 188.05,-84.8"/>
<text text-anchor="middle" x="106" y="-62.6" font-family="Times,serif" font-size="14.00">SettingsProfileComponent</text>
</g>
<!-- SettingsProfileComponent&#45;&gt;SettingsModule -->
<g id="edge5" class="edge">
<title>SettingsProfileComponent&#45;&gt;SettingsModule</title>
<path fill="none" stroke="black" d="M184.62,-84.91C184.62,-104.14 184.62,-131.8 184.62,-131.8 184.62,-131.8 567.6,-131.8 567.6,-131.8"/>
<polygon fill="black" stroke="black" points="567.6,-135.3 577.6,-131.8 567.6,-128.3 567.6,-135.3"/>
</g>
<!-- ChangePasswordComponent  -->
<g id="node9" class="node">
<title>ChangePasswordComponent </title>
<polygon fill="#fb8072" stroke="black" points="1064.77,-214.8 883.23,-214.8 883.23,-178.8 1064.77,-178.8 1064.77,-214.8"/>
<text text-anchor="middle" x="974" y="-192.6" font-family="Times,serif" font-size="14.00">ChangePasswordComponent </text>
</g>
<!-- SettingsModule&#45;&gt;ChangePasswordComponent  -->
<g id="edge8" class="edge">
<title>SettingsModule&#45;&gt;ChangePasswordComponent </title>
<path fill="none" stroke="black" stroke-dasharray="5,2" d="M682.22,-137.8C760.92,-137.8 900.83,-137.8 900.83,-137.8 900.83,-137.8 900.83,-168.78 900.83,-168.78"/>
<polygon fill="black" stroke="black" points="897.33,-168.78 900.83,-178.78 904.33,-168.78 897.33,-168.78"/>
</g>
<!-- SettingsComponent  -->
<g id="node10" class="node">
<title>SettingsComponent </title>
<polygon fill="#fb8072" stroke="black" points="864.95,-214.8 735.05,-214.8 735.05,-178.8 864.95,-178.8 864.95,-214.8"/>
<text text-anchor="middle" x="800" y="-192.6" font-family="Times,serif" font-size="14.00">SettingsComponent </text>
</g>
<!-- SettingsModule&#45;&gt;SettingsComponent  -->
<g id="edge9" class="edge">
<title>SettingsModule&#45;&gt;SettingsComponent </title>
<path fill="none" stroke="black" stroke-dasharray="5,2" d="M682.39,-143.8C732.34,-143.8 800,-143.8 800,-143.8 800,-143.8 800,-168.56 800,-168.56"/>
<polygon fill="black" stroke="black" points="796.5,-168.56 800,-178.56 803.5,-168.56 796.5,-168.56"/>
</g>
<!-- SettingsGeneralComponent  -->
<g id="node11" class="node">
<title>SettingsGeneralComponent </title>
<polygon fill="#fb8072" stroke="black" points="717.25,-214.8 542.75,-214.8 542.75,-178.8 717.25,-178.8 717.25,-214.8"/>
<text text-anchor="middle" x="630" y="-192.6" font-family="Times,serif" font-size="14.00">SettingsGeneralComponent </text>
</g>
<!-- SettingsModule&#45;&gt;SettingsGeneralComponent  -->
<g id="edge10" class="edge">
<title>SettingsModule&#45;&gt;SettingsGeneralComponent </title>
<path fill="none" stroke="black" stroke-dasharray="5,2" d="M630,-149.91C630,-149.91 630,-168.79 630,-168.79"/>
<polygon fill="black" stroke="black" points="626.5,-168.79 630,-178.79 633.5,-168.79 626.5,-168.79"/>
</g>
<!-- SettingsHelpComponent  -->
<g id="node12" class="node">
<title>SettingsHelpComponent </title>
<polygon fill="#fb8072" stroke="black" points="524.66,-214.8 367.34,-214.8 367.34,-178.8 524.66,-178.8 524.66,-214.8"/>
<text text-anchor="middle" x="446" y="-192.6" font-family="Times,serif" font-size="14.00">SettingsHelpComponent </text>
</g>
<!-- SettingsModule&#45;&gt;SettingsHelpComponent  -->
<g id="edge11" class="edge">
<title>SettingsModule&#45;&gt;SettingsHelpComponent </title>
<path fill="none" stroke="black" stroke-dasharray="5,2" d="M577.77,-143.8C524.97,-143.8 451.1,-143.8 451.1,-143.8 451.1,-143.8 451.1,-168.56 451.1,-168.56"/>
<polygon fill="black" stroke="black" points="447.6,-168.56 451.1,-178.56 454.6,-168.56 447.6,-168.56"/>
</g>
<!-- SettingsProfileComponent  -->
<g id="node13" class="node">
<title>SettingsProfileComponent </title>
<polygon fill="#fb8072" stroke="black" points="349.05,-214.8 180.95,-214.8 180.95,-178.8 349.05,-178.8 349.05,-214.8"/>
<text text-anchor="middle" x="265" y="-192.6" font-family="Times,serif" font-size="14.00">SettingsProfileComponent </text>
</g>
<!-- SettingsModule&#45;&gt;SettingsProfileComponent  -->
<g id="edge12" class="edge">
<title>SettingsModule&#45;&gt;SettingsProfileComponent </title>
<path fill="none" stroke="black" stroke-dasharray="5,2" d="M577.62,-137.8C479.45,-137.8 277.6,-137.8 277.6,-137.8 277.6,-137.8 277.6,-168.78 277.6,-168.78"/>
<polygon fill="black" stroke="black" points="274.1,-168.78 277.6,-178.78 281.1,-168.78 274.1,-168.78"/>
</g>
<!-- SettingsRoutingModule -->
<g id="node7" class="node">
<title>SettingsRoutingModule</title>
<polygon fill="#8dd3c7" stroke="black" points="1178.79,-84.8 1175.79,-88.8 1154.79,-88.8 1151.79,-84.8 1029.21,-84.8 1029.21,-48.8 1178.79,-48.8 1178.79,-84.8"/>
<text text-anchor="middle" x="1104" y="-62.6" font-family="Times,serif" font-size="14.00">SettingsRoutingModule</text>
</g>
<!-- SettingsRoutingModule&#45;&gt;SettingsModule -->
<g id="edge6" class="edge">
<title>SettingsRoutingModule&#45;&gt;SettingsModule</title>
<path fill="none" stroke="black" d="M1046.87,-84.91C1046.87,-104.14 1046.87,-131.8 1046.87,-131.8 1046.87,-131.8 692.37,-131.8 692.37,-131.8"/>
<polygon fill="black" stroke="black" points="692.37,-128.3 682.37,-131.8 692.37,-135.3 692.37,-128.3"/>
</g>
<!-- SharedModule -->
<g id="node8" class="node">
<title>SharedModule</title>
<polygon fill="#8dd3c7" stroke="black" points="1011.43,-84.8 1008.43,-88.8 987.43,-88.8 984.43,-84.8 912.57,-84.8 912.57,-48.8 1011.43,-48.8 1011.43,-84.8"/>
<text text-anchor="middle" x="962" y="-62.6" font-family="Times,serif" font-size="14.00">SharedModule</text>
</g>
<!-- SharedModule&#45;&gt;SettingsModule -->
<g id="edge7" class="edge">
<title>SharedModule&#45;&gt;SettingsModule</title>
<path fill="none" stroke="black" d="M962,-84.82C962,-102.17 962,-125.8 962,-125.8 962,-125.8 692.24,-125.8 692.24,-125.8"/>
<polygon fill="black" stroke="black" points="692.24,-122.3 682.24,-125.8 692.24,-129.3 692.24,-122.3"/>
</g>
</g>
</svg>
