<?xml version="1.0" encoding="UTF-8" standalone="no"?>
<!DOCTYPE svg PUBLIC "-//W3C//DTD SVG 1.1//EN"
 "http://www.w3.org/Graphics/SVG/1.1/DTD/svg11.dtd">
<!-- Generated by graphviz version 3.0.0 (20220226.1711)
 -->
<!-- Title: dependencies Pages: 1 -->
<svg width="546pt" height="174pt"
 viewBox="0.00 0.00 546.00 173.80" xmlns="http://www.w3.org/2000/svg" xmlns:xlink="http://www.w3.org/1999/xlink">
<g id="graph0" class="graph" transform="scale(1 1) rotate(0) translate(4 169.8)">
<title>dependencies</title>
<polygon fill="white" stroke="transparent" points="-4,4 -4,-169.8 542,-169.8 542,4 -4,4"/>
<text text-anchor="middle" x="269" y="-8.2" font-family="sans-serif" font-size="14.00">dependencies</text>
<g id="clust1" class="cluster">
<title>cluster_MedicationsModule</title>
<polygon fill="none" stroke="black" stroke-dasharray="1,5" points="8,-32.8 8,-157.8 530,-157.8 530,-32.8 8,-32.8"/>
</g>
<g id="clust2" class="cluster">
<title>cluster_MedicationsModule_declarations</title>
<polygon fill="none" stroke="black" points="138,-40.8 138,-92.8 522,-92.8 522,-40.8 138,-40.8"/>
</g>
<g id="clust5" class="cluster">
<title>cluster_MedicationsModule_imports</title>
<polygon fill="none" stroke="black" points="16,-40.8 16,-92.8 130,-92.8 130,-40.8 16,-40.8"/>
</g>
<!-- MedicationDialogComponent -->
<g id="node1" class="node">
<title>MedicationDialogComponent</title>
<polygon fill="#ffffb3" stroke="black" points="513.69,-84.8 330.31,-84.8 330.31,-48.8 513.69,-48.8 513.69,-84.8"/>
<text text-anchor="middle" x="422" y="-62.6" font-family="Times,serif" font-size="14.00">MedicationDialogComponent</text>
</g>
<!-- MedicationsModule -->
<g id="node3" class="node">
<title>MedicationsModule</title>
<polygon fill="#8dd3c7" stroke="black" points="293.26,-149.8 290.26,-153.8 269.26,-153.8 266.26,-149.8 164.74,-149.8 164.74,-113.8 293.26,-113.8 293.26,-149.8"/>
<text text-anchor="middle" x="229" y="-127.6" font-family="Times,serif" font-size="14.00">MedicationsModule</text>
</g>
<!-- MedicationDialogComponent&#45;&gt;MedicationsModule -->
<g id="edge1" class="edge">
<title>MedicationDialogComponent&#45;&gt;MedicationsModule</title>
<path fill="none" stroke="black" d="M422,-84.91C422,-104.14 422,-131.8 422,-131.8 422,-131.8 303.27,-131.8 303.27,-131.8"/>
<polygon fill="black" stroke="black" points="303.27,-128.3 293.27,-131.8 303.27,-135.3 303.27,-128.3"/>
</g>
<!-- MedicationListComponent -->
<g id="node2" class="node">
<title>MedicationListComponent</title>
<polygon fill="#ffffb3" stroke="black" points="312.37,-84.8 145.63,-84.8 145.63,-48.8 312.37,-48.8 312.37,-84.8"/>
<text text-anchor="middle" x="229" y="-62.6" font-family="Times,serif" font-size="14.00">MedicationListComponent</text>
</g>
<!-- MedicationListComponent&#45;&gt;MedicationsModule -->
<g id="edge2" class="edge">
<title>MedicationListComponent&#45;&gt;MedicationsModule</title>
<path fill="none" stroke="black" d="M229,-84.91C229,-84.91 229,-103.79 229,-103.79"/>
<polygon fill="black" stroke="black" points="225.5,-103.79 229,-113.79 232.5,-103.79 225.5,-103.79"/>
</g>
<!-- SharedModule -->
<g id="node4" class="node">
<title>SharedModule</title>
<polygon fill="#8dd3c7" stroke="black" points="122.43,-84.8 119.43,-88.8 98.43,-88.8 95.43,-84.8 23.57,-84.8 23.57,-48.8 122.43,-48.8 122.43,-84.8"/>
<text text-anchor="middle" x="73" y="-62.6" font-family="Times,serif" font-size="14.00">SharedModule</text>
</g>
<!-- SharedModule&#45;&gt;MedicationsModule -->
<g id="edge3" class="edge">
<title>SharedModule&#45;&gt;MedicationsModule</title>
<path fill="none" stroke="black" d="M73,-84.91C73,-104.14 73,-131.8 73,-131.8 73,-131.8 154.65,-131.8 154.65,-131.8"/>
<polygon fill="black" stroke="black" points="154.65,-135.3 164.65,-131.8 154.65,-128.3 154.65,-135.3"/>
</g>
</g>
</svg>
