<?xml version="1.0" encoding="UTF-8" standalone="no"?>
<!DOCTYPE svg PUBLIC "-//W3C//DTD SVG 1.1//EN"
 "http://www.w3.org/Graphics/SVG/1.1/DTD/svg11.dtd">
<!-- Generated by graphviz version 2.47.3 (20210619.1520)
 -->
<!-- Title: dependencies Pages: 1 -->
<svg width="11376pt" height="247pt"
 viewBox="0.00 0.00 11376.00 246.80" xmlns="http://www.w3.org/2000/svg" xmlns:xlink="http://www.w3.org/1999/xlink">
<g id="graph0" class="graph" transform="scale(1 1) rotate(0) translate(4 242.8)">
<title>dependencies</title>
<polygon fill="white" stroke="transparent" points="-4,4 -4,-242.8 11372,-242.8 11372,4 -4,4"/>
<text text-anchor="middle" x="5684" y="-8.2" font-family="sans-serif" font-size="14.00">dependencies</text>
<g id="clust1" class="cluster">
<title>cluster_AppModule</title>
<polygon fill="none" stroke="black" stroke-dasharray="1,5" points="8,-32.8 8,-230.8 11360,-230.8 11360,-32.8 8,-32.8"/>
</g>
<g id="clust2" class="cluster">
<title>cluster_AppModule_declarations</title>
<polygon fill="none" stroke="black" points="648,-40.8 648,-92.8 11352,-92.8 11352,-40.8 648,-40.8"/>
</g>
<g id="clust61" class="cluster">
<title>cluster_AppModule_imports</title>
<polygon fill="none" stroke="black" points="496,-40.8 496,-92.8 640,-92.8 640,-40.8 496,-40.8"/>
</g>
<g id="clust63" class="cluster">
<title>cluster_AppModule_bootstrap</title>
<polygon fill="none" stroke="black" points="5298,-170.8 5298,-222.8 5422,-222.8 5422,-170.8 5298,-170.8"/>
</g>
<g id="clust64" class="cluster">
<title>cluster_AppModule_providers</title>
<polygon fill="none" stroke="black" points="16,-40.8 16,-92.8 488,-92.8 488,-40.8 16,-40.8"/>
</g>
<!-- AboutUsComponent -->
<g id="node1" class="node">
<title>AboutUsComponent</title>
<polygon fill="#ffffb3" stroke="black" points="11343.88,-84.8 11212.12,-84.8 11212.12,-48.8 11343.88,-48.8 11343.88,-84.8"/>
<text text-anchor="middle" x="11278" y="-62.6" font-family="Times,serif" font-size="14.00">AboutUsComponent</text>
</g>
<!-- AppModule -->
<g id="node59" class="node">
<title>AppModule</title>
<polygon fill="#8dd3c7" stroke="black" points="5401.66,-149.8 5398.66,-153.8 5377.66,-153.8 5374.66,-149.8 5318.34,-149.8 5318.34,-113.8 5401.66,-113.8 5401.66,-149.8"/>
<text text-anchor="middle" x="5360" y="-127.6" font-family="Times,serif" font-size="14.00">AppModule</text>
</g>
<!-- AboutUsComponent&#45;&gt;AppModule -->
<g id="edge1" class="edge">
<title>AboutUsComponent&#45;&gt;AppModule</title>
<path fill="none" stroke="black" d="M11278,-85C11278,-109.16 11278,-148.8 11278,-148.8 11278,-148.8 5411.76,-148.8 5411.76,-148.8"/>
<polygon fill="black" stroke="black" points="5411.76,-145.3 5401.76,-148.8 5411.76,-152.3 5411.76,-145.3"/>
</g>
<!-- AdministerMedDialogComponent -->
<g id="node2" class="node">
<title>AdministerMedDialogComponent</title>
<polygon fill="#ffffb3" stroke="black" points="11194.08,-84.8 10985.92,-84.8 10985.92,-48.8 11194.08,-48.8 11194.08,-84.8"/>
<text text-anchor="middle" x="11090" y="-62.6" font-family="Times,serif" font-size="14.00">AdministerMedDialogComponent</text>
</g>
<!-- AdministerMedDialogComponent&#45;&gt;AppModule -->
<g id="edge2" class="edge">
<title>AdministerMedDialogComponent&#45;&gt;AppModule</title>
<path fill="none" stroke="black" d="M11090,-85.18C11090,-109.08 11090,-147.8 11090,-147.8 11090,-147.8 5412.02,-147.8 5412.02,-147.8"/>
<polygon fill="black" stroke="black" points="5412.02,-144.3 5402.02,-147.8 5412.02,-151.3 5412.02,-144.3"/>
</g>
<!-- AppComponent -->
<g id="node3" class="node">
<title>AppComponent</title>
<polygon fill="#ffffb3" stroke="black" points="10967.94,-84.8 10862.06,-84.8 10862.06,-48.8 10967.94,-48.8 10967.94,-84.8"/>
<text text-anchor="middle" x="10915" y="-62.6" font-family="Times,serif" font-size="14.00">AppComponent</text>
</g>
<!-- AppComponent&#45;&gt;AppModule -->
<g id="edge3" class="edge">
<title>AppComponent&#45;&gt;AppModule</title>
<path fill="none" stroke="black" d="M10915,-84.95C10915,-108.56 10915,-146.8 10915,-146.8 10915,-146.8 5411.91,-146.8 5411.91,-146.8"/>
<polygon fill="black" stroke="black" points="5411.91,-143.3 5401.91,-146.8 5411.91,-150.3 5411.91,-143.3"/>
</g>
<!-- AssessmentInfoComponent -->
<g id="node4" class="node">
<title>AssessmentInfoComponent</title>
<polygon fill="#ffffb3" stroke="black" points="10844.25,-84.8 10673.75,-84.8 10673.75,-48.8 10844.25,-48.8 10844.25,-84.8"/>
<text text-anchor="middle" x="10759" y="-62.6" font-family="Times,serif" font-size="14.00">AssessmentInfoComponent</text>
</g>
<!-- AssessmentInfoComponent&#45;&gt;AppModule -->
<g id="edge4" class="edge">
<title>AssessmentInfoComponent&#45;&gt;AppModule</title>
<path fill="none" stroke="black" d="M10759,-85.12C10759,-108.46 10759,-145.8 10759,-145.8 10759,-145.8 5411.89,-145.8 5411.89,-145.8"/>
<polygon fill="black" stroke="black" points="5411.89,-142.3 5401.89,-145.8 5411.89,-149.3 5411.89,-142.3"/>
</g>
<!-- AssessmentRowComponent -->
<g id="node5" class="node">
<title>AssessmentRowComponent</title>
<polygon fill="#ffffb3" stroke="black" points="10655.87,-84.8 10482.13,-84.8 10482.13,-48.8 10655.87,-48.8 10655.87,-84.8"/>
<text text-anchor="middle" x="10569" y="-62.6" font-family="Times,serif" font-size="14.00">AssessmentRowComponent</text>
</g>
<!-- AssessmentRowComponent&#45;&gt;AppModule -->
<g id="edge5" class="edge">
<title>AssessmentRowComponent&#45;&gt;AppModule</title>
<path fill="none" stroke="black" d="M10569,-84.89C10569,-107.93 10569,-144.8 10569,-144.8 10569,-144.8 5411.93,-144.8 5411.93,-144.8"/>
<polygon fill="black" stroke="black" points="5411.93,-141.3 5401.93,-144.8 5411.93,-148.3 5411.93,-141.3"/>
</g>
<!-- AssessmentsHistoryTabComponent -->
<g id="node6" class="node">
<title>AssessmentsHistoryTabComponent</title>
<polygon fill="#ffffb3" stroke="black" points="10464.13,-84.8 10247.87,-84.8 10247.87,-48.8 10464.13,-48.8 10464.13,-84.8"/>
<text text-anchor="middle" x="10356" y="-62.6" font-family="Times,serif" font-size="14.00">AssessmentsHistoryTabComponent</text>
</g>
<!-- AssessmentsHistoryTabComponent&#45;&gt;AppModule -->
<g id="edge6" class="edge">
<title>AssessmentsHistoryTabComponent&#45;&gt;AppModule</title>
<path fill="none" stroke="black" d="M10356,-85.05C10356,-107.82 10356,-143.8 10356,-143.8 10356,-143.8 5411.69,-143.8 5411.69,-143.8"/>
<polygon fill="black" stroke="black" points="5411.69,-140.3 5401.69,-143.8 5411.69,-147.3 5411.69,-140.3"/>
</g>
<!-- AssessmentsTabComponent -->
<g id="node7" class="node">
<title>AssessmentsTabComponent</title>
<polygon fill="#ffffb3" stroke="black" points="10229.14,-84.8 10054.86,-84.8 10054.86,-48.8 10229.14,-48.8 10229.14,-84.8"/>
<text text-anchor="middle" x="10142" y="-62.6" font-family="Times,serif" font-size="14.00">AssessmentsTabComponent</text>
</g>
<!-- AssessmentsTabComponent&#45;&gt;AppModule -->
<g id="edge7" class="edge">
<title>AssessmentsTabComponent&#45;&gt;AppModule</title>
<path fill="none" stroke="black" d="M10142,-84.81C10142,-107.29 10142,-142.8 10142,-142.8 10142,-142.8 5411.7,-142.8 5411.7,-142.8"/>
<polygon fill="black" stroke="black" points="5411.7,-139.3 5401.7,-142.8 5411.7,-146.3 5411.7,-139.3"/>
</g>
<!-- CardiovascularFormComponent -->
<g id="node8" class="node">
<title>CardiovascularFormComponent</title>
<polygon fill="#ffffb3" stroke="black" points="10036.41,-84.8 9839.59,-84.8 9839.59,-48.8 10036.41,-48.8 10036.41,-84.8"/>
<text text-anchor="middle" x="9938" y="-62.6" font-family="Times,serif" font-size="14.00">CardiovascularFormComponent</text>
</g>
<!-- CardiovascularFormComponent&#45;&gt;AppModule -->
<g id="edge8" class="edge">
<title>CardiovascularFormComponent&#45;&gt;AppModule</title>
<path fill="none" stroke="black" d="M9938,-85.09C9938,-107.01 9938,-140.8 9938,-140.8 9938,-140.8 5411.68,-140.8 5411.68,-140.8"/>
<polygon fill="black" stroke="black" points="5411.68,-137.3 5401.68,-140.8 5411.68,-144.3 5411.68,-137.3"/>
</g>
<!-- CardiovascularInfoComponent -->
<g id="node9" class="node">
<title>CardiovascularInfoComponent</title>
<polygon fill="#ffffb3" stroke="black" points="9821.9,-84.8 9632.1,-84.8 9632.1,-48.8 9821.9,-48.8 9821.9,-84.8"/>
<text text-anchor="middle" x="9727" y="-62.6" font-family="Times,serif" font-size="14.00">CardiovascularInfoComponent</text>
</g>
<!-- CardiovascularInfoComponent&#45;&gt;AppModule -->
<g id="edge9" class="edge">
<title>CardiovascularInfoComponent&#45;&gt;AppModule</title>
<path fill="none" stroke="black" d="M9727,-84.84C9727,-106.46 9727,-139.8 9727,-139.8 9727,-139.8 5411.82,-139.8 5411.82,-139.8"/>
<polygon fill="black" stroke="black" points="5411.82,-136.3 5401.82,-139.8 5411.82,-143.3 5411.82,-136.3"/>
</g>
<!-- ChangePasswordComponent -->
<g id="node10" class="node">
<title>ChangePasswordComponent</title>
<polygon fill="#ffffb3" stroke="black" points="9613.75,-84.8 9436.25,-84.8 9436.25,-48.8 9613.75,-48.8 9613.75,-84.8"/>
<text text-anchor="middle" x="9525" y="-62.6" font-family="Times,serif" font-size="14.00">ChangePasswordComponent</text>
</g>
<!-- ChangePasswordComponent&#45;&gt;AppModule -->
<g id="edge10" class="edge">
<title>ChangePasswordComponent&#45;&gt;AppModule</title>
<path fill="none" stroke="black" d="M9525,-84.97C9525,-106.3 9525,-138.8 9525,-138.8 9525,-138.8 5411.9,-138.8 5411.9,-138.8"/>
<polygon fill="black" stroke="black" points="5411.9,-135.3 5401.9,-138.8 5411.9,-142.3 5411.9,-135.3"/>
</g>
<!-- ConfirmationDialogComponent -->
<g id="node11" class="node">
<title>ConfirmationDialogComponent</title>
<polygon fill="#ffffb3" stroke="black" points="9418.37,-84.8 9223.63,-84.8 9223.63,-48.8 9418.37,-48.8 9418.37,-84.8"/>
<text text-anchor="middle" x="9321" y="-62.6" font-family="Times,serif" font-size="14.00">ConfirmationDialogComponent</text>
</g>
<!-- ConfirmationDialogComponent&#45;&gt;AppModule -->
<g id="edge11" class="edge">
<title>ConfirmationDialogComponent&#45;&gt;AppModule</title>
<path fill="none" stroke="black" d="M9321,-85.08C9321,-106.12 9321,-137.8 9321,-137.8 9321,-137.8 5411.8,-137.8 5411.8,-137.8"/>
<polygon fill="black" stroke="black" points="5411.8,-134.3 5401.8,-137.8 5411.8,-141.3 5411.8,-134.3"/>
</g>
<!-- CreatePatientComponent -->
<g id="node12" class="node">
<title>CreatePatientComponent</title>
<polygon fill="#ffffb3" stroke="black" points="9205.25,-84.8 9048.75,-84.8 9048.75,-48.8 9205.25,-48.8 9205.25,-84.8"/>
<text text-anchor="middle" x="9127" y="-62.6" font-family="Times,serif" font-size="14.00">CreatePatientComponent</text>
</g>
<!-- CreatePatientComponent&#45;&gt;AppModule -->
<g id="edge12" class="edge">
<title>CreatePatientComponent&#45;&gt;AppModule</title>
<path fill="none" stroke="black" d="M9127,-84.83C9127,-105.57 9127,-136.8 9127,-136.8 9127,-136.8 5411.66,-136.8 5411.66,-136.8"/>
<polygon fill="black" stroke="black" points="5411.66,-133.3 5401.66,-136.8 5411.66,-140.3 5411.66,-133.3"/>
</g>
<!-- EmrCheckboxComponent -->
<g id="node13" class="node">
<title>EmrCheckboxComponent</title>
<polygon fill="#ffffb3" stroke="black" points="9031.2,-84.8 8868.8,-84.8 8868.8,-48.8 9031.2,-48.8 9031.2,-84.8"/>
<text text-anchor="middle" x="8950" y="-62.6" font-family="Times,serif" font-size="14.00">EmrCheckboxComponent</text>
</g>
<!-- EmrCheckboxComponent&#45;&gt;AppModule -->
<g id="edge13" class="edge">
<title>EmrCheckboxComponent&#45;&gt;AppModule</title>
<path fill="none" stroke="black" d="M8950,-84.93C8950,-105.37 8950,-135.8 8950,-135.8 8950,-135.8 5411.87,-135.8 5411.87,-135.8"/>
<polygon fill="black" stroke="black" points="5411.87,-132.3 5401.87,-135.8 5411.87,-139.3 5411.87,-132.3"/>
</g>
<!-- EmrCheckboxGroupComponent -->
<g id="node14" class="node">
<title>EmrCheckboxGroupComponent</title>
<polygon fill="#ffffb3" stroke="black" points="8850.97,-84.8 8653.03,-84.8 8653.03,-48.8 8850.97,-48.8 8850.97,-84.8"/>
<text text-anchor="middle" x="8752" y="-62.6" font-family="Times,serif" font-size="14.00">EmrCheckboxGroupComponent</text>
</g>
<!-- EmrCheckboxGroupComponent&#45;&gt;AppModule -->
<g id="edge14" class="edge">
<title>EmrCheckboxGroupComponent&#45;&gt;AppModule</title>
<path fill="none" stroke="black" d="M8752,-85.02C8752,-105.17 8752,-134.8 8752,-134.8 8752,-134.8 5411.66,-134.8 5411.66,-134.8"/>
<polygon fill="black" stroke="black" points="5411.66,-131.3 5401.66,-134.8 5411.66,-138.3 5411.66,-131.3"/>
</g>
<!-- EmrInputComponent -->
<g id="node15" class="node">
<title>EmrInputComponent</title>
<polygon fill="#ffffb3" stroke="black" points="8635.49,-84.8 8500.51,-84.8 8500.51,-48.8 8635.49,-48.8 8635.49,-84.8"/>
<text text-anchor="middle" x="8568" y="-62.6" font-family="Times,serif" font-size="14.00">EmrInputComponent</text>
</g>
<!-- EmrInputComponent&#45;&gt;AppModule -->
<g id="edge15" class="edge">
<title>EmrInputComponent&#45;&gt;AppModule</title>
<path fill="none" stroke="black" d="M8568,-85.11C8568,-104.95 8568,-133.8 8568,-133.8 8568,-133.8 5411.73,-133.8 5411.73,-133.8"/>
<polygon fill="black" stroke="black" points="5411.73,-130.3 5401.73,-133.8 5411.73,-137.3 5411.73,-130.3"/>
</g>
<!-- EmrListComponent -->
<g id="node16" class="node">
<title>EmrListComponent</title>
<polygon fill="#ffffb3" stroke="black" points="8482.71,-84.8 8355.29,-84.8 8355.29,-48.8 8482.71,-48.8 8482.71,-84.8"/>
<text text-anchor="middle" x="8419" y="-62.6" font-family="Times,serif" font-size="14.00">EmrListComponent</text>
</g>
<!-- EmrListComponent&#45;&gt;AppModule -->
<g id="edge16" class="edge">
<title>EmrListComponent&#45;&gt;AppModule</title>
<path fill="none" stroke="black" d="M8419,-84.91C8419,-104.14 8419,-131.8 8419,-131.8 8419,-131.8 5411.79,-131.8 5411.79,-131.8"/>
<polygon fill="black" stroke="black" points="5411.79,-128.3 5401.79,-131.8 5411.79,-135.3 5411.79,-128.3"/>
</g>
<!-- EmrTableComponent -->
<g id="node17" class="node">
<title>EmrTableComponent</title>
<polygon fill="#ffffb3" stroke="black" points="8337.81,-84.8 8200.19,-84.8 8200.19,-48.8 8337.81,-48.8 8337.81,-84.8"/>
<text text-anchor="middle" x="8269" y="-62.6" font-family="Times,serif" font-size="14.00">EmrTableComponent</text>
</g>
<!-- EmrTableComponent&#45;&gt;AppModule -->
<g id="edge17" class="edge">
<title>EmrTableComponent&#45;&gt;AppModule</title>
<path fill="none" stroke="black" d="M8269,-84.97C8269,-103.89 8269,-130.8 8269,-130.8 8269,-130.8 5411.68,-130.8 5411.68,-130.8"/>
<polygon fill="black" stroke="black" points="5411.68,-127.3 5401.68,-130.8 5411.68,-134.3 5411.68,-127.3"/>
</g>
<!-- ExpansionPanelComponent -->
<g id="node18" class="node">
<title>ExpansionPanelComponent</title>
<polygon fill="#ffffb3" stroke="black" points="8182.54,-84.8 8011.46,-84.8 8011.46,-48.8 8182.54,-48.8 8182.54,-84.8"/>
<text text-anchor="middle" x="8097" y="-62.6" font-family="Times,serif" font-size="14.00">ExpansionPanelComponent</text>
</g>
<!-- ExpansionPanelComponent&#45;&gt;AppModule -->
<g id="edge18" class="edge">
<title>ExpansionPanelComponent&#45;&gt;AppModule</title>
<path fill="none" stroke="black" d="M8097,-85.02C8097,-103.63 8097,-129.8 8097,-129.8 8097,-129.8 5411.9,-129.8 5411.9,-129.8"/>
<polygon fill="black" stroke="black" points="5411.9,-126.3 5401.9,-129.8 5411.9,-133.3 5411.9,-126.3"/>
</g>
<!-- FileUploadDialogComponent -->
<g id="node19" class="node">
<title>FileUploadDialogComponent</title>
<polygon fill="#ffffb3" stroke="black" points="7993.43,-84.8 7810.57,-84.8 7810.57,-48.8 7993.43,-48.8 7993.43,-84.8"/>
<text text-anchor="middle" x="7902" y="-62.6" font-family="Times,serif" font-size="14.00">FileUploadDialogComponent</text>
</g>
<!-- FileUploadDialogComponent&#45;&gt;AppModule -->
<g id="edge19" class="edge">
<title>FileUploadDialogComponent&#45;&gt;AppModule</title>
<path fill="none" stroke="black" d="M7902,-85.07C7902,-103.36 7902,-128.8 7902,-128.8 7902,-128.8 5411.74,-128.8 5411.74,-128.8"/>
<polygon fill="black" stroke="black" points="5411.74,-125.3 5401.74,-128.8 5411.74,-132.3 5411.74,-125.3"/>
</g>
<!-- ForgotPasswordComponent -->
<g id="node20" class="node">
<title>ForgotPasswordComponent</title>
<polygon fill="#ffffb3" stroke="black" points="7793.32,-84.8 7620.68,-84.8 7620.68,-48.8 7793.32,-48.8 7793.32,-84.8"/>
<text text-anchor="middle" x="7707" y="-62.6" font-family="Times,serif" font-size="14.00">ForgotPasswordComponent</text>
</g>
<!-- ForgotPasswordComponent&#45;&gt;AppModule -->
<g id="edge20" class="edge">
<title>ForgotPasswordComponent&#45;&gt;AppModule</title>
<path fill="none" stroke="black" d="M7707,-85.1C7707,-103.07 7707,-127.8 7707,-127.8 7707,-127.8 5411.73,-127.8 5411.73,-127.8"/>
<polygon fill="black" stroke="black" points="5411.73,-124.3 5401.73,-127.8 5411.73,-131.3 5411.73,-124.3"/>
</g>
<!-- GastrointestinalFormComponent -->
<g id="node21" class="node">
<title>GastrointestinalFormComponent</title>
<polygon fill="#ffffb3" stroke="black" points="7603.31,-84.8 7402.69,-84.8 7402.69,-48.8 7603.31,-48.8 7603.31,-84.8"/>
<text text-anchor="middle" x="7503" y="-62.6" font-family="Times,serif" font-size="14.00">GastrointestinalFormComponent</text>
</g>
<!-- GastrointestinalFormComponent&#45;&gt;AppModule -->
<g id="edge21" class="edge">
<title>GastrointestinalFormComponent&#45;&gt;AppModule</title>
<path fill="none" stroke="black" d="M7503,-84.8C7503,-102.48 7503,-126.8 7503,-126.8 7503,-126.8 5411.85,-126.8 5411.85,-126.8"/>
<polygon fill="black" stroke="black" points="5411.85,-123.3 5401.85,-126.8 5411.85,-130.3 5411.85,-123.3"/>
</g>
<!-- GastrointestinalInfoComponent -->
<g id="node22" class="node">
<title>GastrointestinalInfoComponent</title>
<polygon fill="#ffffb3" stroke="black" points="7384.8,-84.8 7191.2,-84.8 7191.2,-48.8 7384.8,-48.8 7384.8,-84.8"/>
<text text-anchor="middle" x="7288" y="-62.6" font-family="Times,serif" font-size="14.00">GastrointestinalInfoComponent</text>
</g>
<!-- GastrointestinalInfoComponent&#45;&gt;AppModule -->
<g id="edge22" class="edge">
<title>GastrointestinalInfoComponent&#45;&gt;AppModule</title>
<path fill="none" stroke="black" d="M7288,-84.82C7288,-102.17 7288,-125.8 7288,-125.8 7288,-125.8 5412.06,-125.8 5412.06,-125.8"/>
<polygon fill="black" stroke="black" points="5412.06,-122.3 5402.06,-125.8 5412.06,-129.3 5412.06,-122.3"/>
</g>
<!-- GenitourinaryFormComponent -->
<g id="node23" class="node">
<title>GenitourinaryFormComponent</title>
<polygon fill="#ffffb3" stroke="black" points="7173.2,-84.8 6982.8,-84.8 6982.8,-48.8 7173.2,-48.8 7173.2,-84.8"/>
<text text-anchor="middle" x="7078" y="-62.6" font-family="Times,serif" font-size="14.00">GenitourinaryFormComponent</text>
</g>
<!-- GenitourinaryFormComponent&#45;&gt;AppModule -->
<g id="edge23" class="edge">
<title>GenitourinaryFormComponent&#45;&gt;AppModule</title>
<path fill="none" stroke="black" d="M7078,-84.83C7078,-101.86 7078,-124.8 7078,-124.8 7078,-124.8 5412.04,-124.8 5412.04,-124.8"/>
<polygon fill="black" stroke="black" points="5412.04,-121.3 5402.04,-124.8 5412.04,-128.3 5412.04,-121.3"/>
</g>
<!-- GenitourinaryInfoComponent -->
<g id="node24" class="node">
<title>GenitourinaryInfoComponent</title>
<polygon fill="#ffffb3" stroke="black" points="6964.68,-84.8 6781.32,-84.8 6781.32,-48.8 6964.68,-48.8 6964.68,-84.8"/>
<text text-anchor="middle" x="6873" y="-62.6" font-family="Times,serif" font-size="14.00">GenitourinaryInfoComponent</text>
</g>
<!-- GenitourinaryInfoComponent&#45;&gt;AppModule -->
<g id="edge24" class="edge">
<title>GenitourinaryInfoComponent&#45;&gt;AppModule</title>
<path fill="none" stroke="black" d="M6873,-84.83C6873,-101.2 6873,-122.8 6873,-122.8 6873,-122.8 5412.05,-122.8 5412.05,-122.8"/>
<polygon fill="black" stroke="black" points="5412.05,-119.3 5402.05,-122.8 5412.05,-126.3 5412.05,-119.3"/>
</g>
<!-- IntegumentaryFormComponent -->
<g id="node25" class="node">
<title>IntegumentaryFormComponent</title>
<polygon fill="#ffffb3" stroke="black" points="6763.8,-84.8 6570.2,-84.8 6570.2,-48.8 6763.8,-48.8 6763.8,-84.8"/>
<text text-anchor="middle" x="6667" y="-62.6" font-family="Times,serif" font-size="14.00">IntegumentaryFormComponent</text>
</g>
<!-- IntegumentaryFormComponent&#45;&gt;AppModule -->
<g id="edge25" class="edge">
<title>IntegumentaryFormComponent&#45;&gt;AppModule</title>
<path fill="none" stroke="black" d="M6667,-84.81C6667,-100.85 6667,-121.8 6667,-121.8 6667,-121.8 5412.01,-121.8 5412.01,-121.8"/>
<polygon fill="black" stroke="black" points="5412.01,-118.3 5402.01,-121.8 5412.01,-125.3 5412.01,-118.3"/>
</g>
<!-- IntegumentaryInfoComponent -->
<g id="node26" class="node">
<title>IntegumentaryInfoComponent</title>
<polygon fill="#ffffb3" stroke="black" points="6552.29,-84.8 6365.71,-84.8 6365.71,-48.8 6552.29,-48.8 6552.29,-84.8"/>
<text text-anchor="middle" x="6459" y="-62.6" font-family="Times,serif" font-size="14.00">IntegumentaryInfoComponent</text>
</g>
<!-- IntegumentaryInfoComponent&#45;&gt;AppModule -->
<g id="edge26" class="edge">
<title>IntegumentaryInfoComponent&#45;&gt;AppModule</title>
<path fill="none" stroke="black" d="M6459,-85.08C6459,-100.75 6459,-120.8 6459,-120.8 6459,-120.8 5411.74,-120.8 5411.74,-120.8"/>
<polygon fill="black" stroke="black" points="5411.74,-117.3 5401.74,-120.8 5411.74,-124.3 5411.74,-117.3"/>
</g>
<!-- LoginComponent -->
<g id="node27" class="node">
<title>LoginComponent</title>
<polygon fill="#ffffb3" stroke="black" points="6347.28,-84.8 6232.72,-84.8 6232.72,-48.8 6347.28,-48.8 6347.28,-84.8"/>
<text text-anchor="middle" x="6290" y="-62.6" font-family="Times,serif" font-size="14.00">LoginComponent</text>
</g>
<!-- LoginComponent&#45;&gt;AppModule -->
<g id="edge27" class="edge">
<title>LoginComponent&#45;&gt;AppModule</title>
<path fill="none" stroke="black" d="M6290,-85.04C6290,-100.37 6290,-119.8 6290,-119.8 6290,-119.8 5411.77,-119.8 5411.77,-119.8"/>
<polygon fill="black" stroke="black" points="5411.77,-116.3 5401.77,-119.8 5411.77,-123.3 5411.77,-116.3"/>
</g>
<!-- MainNavComponent -->
<g id="node28" class="node">
<title>MainNavComponent</title>
<polygon fill="#ffffb3" stroke="black" points="6215.2,-84.8 6080.8,-84.8 6080.8,-48.8 6215.2,-48.8 6215.2,-84.8"/>
<text text-anchor="middle" x="6148" y="-62.6" font-family="Times,serif" font-size="14.00">MainNavComponent</text>
</g>
<!-- MainNavComponent&#45;&gt;AppModule -->
<g id="edge28" class="edge">
<title>MainNavComponent&#45;&gt;AppModule</title>
<path fill="none" stroke="black" d="M6148,-84.99C6148,-99.98 6148,-118.8 6148,-118.8 6148,-118.8 5411.81,-118.8 5411.81,-118.8"/>
<polygon fill="black" stroke="black" points="5411.81,-115.3 5401.81,-118.8 5411.81,-122.3 5411.81,-115.3"/>
</g>
<!-- MarTabComponent -->
<g id="node29" class="node">
<title>MarTabComponent</title>
<polygon fill="#ffffb3" stroke="black" points="6063.42,-84.8 5936.58,-84.8 5936.58,-48.8 6063.42,-48.8 6063.42,-84.8"/>
<text text-anchor="middle" x="6000" y="-62.6" font-family="Times,serif" font-size="14.00">MarTabComponent</text>
</g>
<!-- MarTabComponent&#45;&gt;AppModule -->
<g id="edge29" class="edge">
<title>MarTabComponent&#45;&gt;AppModule</title>
<path fill="none" stroke="black" d="M6000,-84.92C6000,-99.58 6000,-117.8 6000,-117.8 6000,-117.8 5411.99,-117.8 5411.99,-117.8"/>
<polygon fill="black" stroke="black" points="5411.99,-114.3 5401.99,-117.8 5411.99,-121.3 5411.99,-114.3"/>
</g>
<!-- MedDialogComponent -->
<g id="node30" class="node">
<title>MedDialogComponent</title>
<polygon fill="#ffffb3" stroke="black" points="5918.59,-84.8 5773.41,-84.8 5773.41,-48.8 5918.59,-48.8 5918.59,-84.8"/>
<text text-anchor="middle" x="5846" y="-62.6" font-family="Times,serif" font-size="14.00">MedDialogComponent</text>
</g>
<!-- MedDialogComponent&#45;&gt;AppModule -->
<g id="edge30" class="edge">
<title>MedDialogComponent&#45;&gt;AppModule</title>
<path fill="none" stroke="black" d="M5846,-84.85C5846,-99.17 5846,-116.8 5846,-116.8 5846,-116.8 5411.86,-116.8 5411.86,-116.8"/>
<polygon fill="black" stroke="black" points="5411.86,-113.3 5401.86,-116.8 5411.86,-120.3 5411.86,-113.3"/>
</g>
<!-- MedicationListComponent -->
<g id="node31" class="node">
<title>MedicationListComponent</title>
<polygon fill="#ffffb3" stroke="black" points="5755.37,-84.8 5588.63,-84.8 5588.63,-48.8 5755.37,-48.8 5755.37,-84.8"/>
<text text-anchor="middle" x="5672" y="-62.6" font-family="Times,serif" font-size="14.00">MedicationListComponent</text>
</g>
<!-- MedicationListComponent&#45;&gt;AppModule -->
<g id="edge31" class="edge">
<title>MedicationListComponent&#45;&gt;AppModule</title>
<path fill="none" stroke="black" d="M5672,-85.05C5672,-98.98 5672,-115.8 5672,-115.8 5672,-115.8 5411.75,-115.8 5411.75,-115.8"/>
<polygon fill="black" stroke="black" points="5411.75,-112.3 5401.75,-115.8 5411.75,-119.3 5411.75,-112.3"/>
</g>
<!-- MusculoskeletalFormComponent -->
<g id="node32" class="node">
<title>MusculoskeletalFormComponent</title>
<polygon fill="#ffffb3" stroke="black" points="5570.92,-84.8 5367.08,-84.8 5367.08,-48.8 5570.92,-48.8 5570.92,-84.8"/>
<text text-anchor="middle" x="5469" y="-62.6" font-family="Times,serif" font-size="14.00">MusculoskeletalFormComponent</text>
</g>
<!-- MusculoskeletalFormComponent&#45;&gt;AppModule -->
<g id="edge32" class="edge">
<title>MusculoskeletalFormComponent&#45;&gt;AppModule</title>
<path fill="none" stroke="black" d="M5384.56,-84.91C5384.56,-84.91 5384.56,-103.79 5384.56,-103.79"/>
<polygon fill="black" stroke="black" points="5381.06,-103.79 5384.56,-113.79 5388.06,-103.79 5381.06,-103.79"/>
</g>
<!-- MusculoskeletalInfoComponent -->
<g id="node33" class="node">
<title>MusculoskeletalInfoComponent</title>
<polygon fill="#ffffb3" stroke="black" points="5349.41,-84.8 5152.59,-84.8 5152.59,-48.8 5349.41,-48.8 5349.41,-84.8"/>
<text text-anchor="middle" x="5251" y="-62.6" font-family="Times,serif" font-size="14.00">MusculoskeletalInfoComponent</text>
</g>
<!-- MusculoskeletalInfoComponent&#45;&gt;AppModule -->
<g id="edge33" class="edge">
<title>MusculoskeletalInfoComponent&#45;&gt;AppModule</title>
<path fill="none" stroke="black" d="M5333.69,-84.91C5333.69,-84.91 5333.69,-103.79 5333.69,-103.79"/>
<polygon fill="black" stroke="black" points="5330.19,-103.79 5333.69,-113.79 5337.19,-103.79 5330.19,-103.79"/>
</g>
<!-- NeurologicalFormComponent -->
<g id="node34" class="node">
<title>NeurologicalFormComponent</title>
<polygon fill="#ffffb3" stroke="black" points="5134.25,-84.8 4949.75,-84.8 4949.75,-48.8 5134.25,-48.8 5134.25,-84.8"/>
<text text-anchor="middle" x="5042" y="-62.6" font-family="Times,serif" font-size="14.00">NeurologicalFormComponent</text>
</g>
<!-- NeurologicalFormComponent&#45;&gt;AppModule -->
<g id="edge34" class="edge">
<title>NeurologicalFormComponent&#45;&gt;AppModule</title>
<path fill="none" stroke="black" d="M5042,-85.05C5042,-98.98 5042,-115.8 5042,-115.8 5042,-115.8 5308.1,-115.8 5308.1,-115.8"/>
<polygon fill="black" stroke="black" points="5308.1,-119.3 5318.1,-115.8 5308.1,-112.3 5308.1,-119.3"/>
</g>
<!-- NeurologicalInfoComponent -->
<g id="node35" class="node">
<title>NeurologicalInfoComponent</title>
<polygon fill="#ffffb3" stroke="black" points="4931.74,-84.8 4754.26,-84.8 4754.26,-48.8 4931.74,-48.8 4931.74,-84.8"/>
<text text-anchor="middle" x="4843" y="-62.6" font-family="Times,serif" font-size="14.00">NeurologicalInfoComponent</text>
</g>
<!-- NeurologicalInfoComponent&#45;&gt;AppModule -->
<g id="edge35" class="edge">
<title>NeurologicalInfoComponent&#45;&gt;AppModule</title>
<path fill="none" stroke="black" d="M4843,-84.85C4843,-99.17 4843,-116.8 4843,-116.8 4843,-116.8 5308.13,-116.8 5308.13,-116.8"/>
<polygon fill="black" stroke="black" points="5308.13,-120.3 5318.13,-116.8 5308.13,-113.3 5308.13,-120.3"/>
</g>
<!-- NoteFormComponent -->
<g id="node36" class="node">
<title>NoteFormComponent</title>
<polygon fill="#ffffb3" stroke="black" points="4736.38,-84.8 4597.62,-84.8 4597.62,-48.8 4736.38,-48.8 4736.38,-84.8"/>
<text text-anchor="middle" x="4667" y="-62.6" font-family="Times,serif" font-size="14.00">NoteFormComponent</text>
</g>
<!-- NoteFormComponent&#45;&gt;AppModule -->
<g id="edge36" class="edge">
<title>NoteFormComponent&#45;&gt;AppModule</title>
<path fill="none" stroke="black" d="M4667,-84.92C4667,-99.58 4667,-117.8 4667,-117.8 4667,-117.8 5308.21,-117.8 5308.21,-117.8"/>
<polygon fill="black" stroke="black" points="5308.21,-121.3 5318.21,-117.8 5308.21,-114.3 5308.21,-121.3"/>
</g>
<!-- OrderEditDialog -->
<g id="node37" class="node">
<title>OrderEditDialog</title>
<polygon fill="#ffffb3" stroke="black" points="4580.08,-84.8 4469.92,-84.8 4469.92,-48.8 4580.08,-48.8 4580.08,-84.8"/>
<text text-anchor="middle" x="4525" y="-62.6" font-family="Times,serif" font-size="14.00">OrderEditDialog</text>
</g>
<!-- OrderEditDialog&#45;&gt;AppModule -->
<g id="edge37" class="edge">
<title>OrderEditDialog&#45;&gt;AppModule</title>
<path fill="none" stroke="black" d="M4525,-84.99C4525,-99.98 4525,-118.8 4525,-118.8 4525,-118.8 5308.31,-118.8 5308.31,-118.8"/>
<polygon fill="black" stroke="black" points="5308.31,-122.3 5318.31,-118.8 5308.31,-115.3 5308.31,-122.3"/>
</g>
<!-- OrderFormComponent -->
<g id="node38" class="node">
<title>OrderFormComponent</title>
<polygon fill="#ffffb3" stroke="black" points="4452.31,-84.8 4307.69,-84.8 4307.69,-48.8 4452.31,-48.8 4452.31,-84.8"/>
<text text-anchor="middle" x="4380" y="-62.6" font-family="Times,serif" font-size="14.00">OrderFormComponent</text>
</g>
<!-- OrderFormComponent&#45;&gt;AppModule -->
<g id="edge38" class="edge">
<title>OrderFormComponent&#45;&gt;AppModule</title>
<path fill="none" stroke="black" d="M4355.95,-85.08C4355.95,-100.75 4355.95,-120.8 4355.95,-120.8 4355.95,-120.8 5308.14,-120.8 5308.14,-120.8"/>
<polygon fill="black" stroke="black" points="5308.14,-124.3 5318.14,-120.8 5308.14,-117.3 5308.14,-124.3"/>
</g>
<!-- OrderFormComponent&#45;&gt;AppModule -->
<g id="edge39" class="edge">
<title>OrderFormComponent&#45;&gt;AppModule</title>
<path fill="none" stroke="black" d="M4404.05,-85.04C4404.05,-100.37 4404.05,-119.8 4404.05,-119.8 4404.05,-119.8 5308.31,-119.8 5308.31,-119.8"/>
<polygon fill="black" stroke="black" points="5308.31,-123.3 5318.31,-119.8 5308.31,-116.3 5308.31,-123.3"/>
</g>
<!-- PageComponent -->
<g id="node39" class="node">
<title>PageComponent</title>
<polygon fill="#ffffb3" stroke="black" points="4290.05,-84.8 4181.95,-84.8 4181.95,-48.8 4290.05,-48.8 4290.05,-84.8"/>
<text text-anchor="middle" x="4236" y="-62.6" font-family="Times,serif" font-size="14.00">PageComponent</text>
</g>
<!-- PageComponent&#45;&gt;AppModule -->
<g id="edge40" class="edge">
<title>PageComponent&#45;&gt;AppModule</title>
<path fill="none" stroke="black" d="M4236,-84.81C4236,-100.85 4236,-121.8 4236,-121.8 4236,-121.8 5308.33,-121.8 5308.33,-121.8"/>
<polygon fill="black" stroke="black" points="5308.33,-125.3 5318.33,-121.8 5308.33,-118.3 5308.33,-125.3"/>
</g>
<!-- PageNotFoundComponent -->
<g id="node40" class="node">
<title>PageNotFoundComponent</title>
<polygon fill="#ffffb3" stroke="black" points="4163.82,-84.8 3998.18,-84.8 3998.18,-48.8 4163.82,-48.8 4163.82,-84.8"/>
<text text-anchor="middle" x="4081" y="-62.6" font-family="Times,serif" font-size="14.00">PageNotFoundComponent</text>
</g>
<!-- PageNotFoundComponent&#45;&gt;AppModule -->
<g id="edge41" class="edge">
<title>PageNotFoundComponent&#45;&gt;AppModule</title>
<path fill="none" stroke="black" d="M4081,-84.83C4081,-101.2 4081,-122.8 4081,-122.8 4081,-122.8 5308.17,-122.8 5308.17,-122.8"/>
<polygon fill="black" stroke="black" points="5308.17,-126.3 5318.17,-122.8 5308.17,-119.3 5308.17,-126.3"/>
</g>
<!-- PatientDashboardComponent -->
<g id="node41" class="node">
<title>PatientDashboardComponent</title>
<polygon fill="#ffffb3" stroke="black" points="3980.36,-84.8 3799.64,-84.8 3799.64,-48.8 3980.36,-48.8 3980.36,-84.8"/>
<text text-anchor="middle" x="3890" y="-62.6" font-family="Times,serif" font-size="14.00">PatientDashboardComponent</text>
</g>
<!-- PatientDashboardComponent&#45;&gt;AppModule -->
<g id="edge42" class="edge">
<title>PatientDashboardComponent&#45;&gt;AppModule</title>
<path fill="none" stroke="black" d="M3890,-84.83C3890,-101.86 3890,-124.8 3890,-124.8 3890,-124.8 5307.98,-124.8 5307.98,-124.8"/>
<polygon fill="black" stroke="black" points="5307.98,-128.3 5317.98,-124.8 5307.98,-121.3 5307.98,-128.3"/>
</g>
<!-- PatientHistoryFormComponent -->
<g id="node42" class="node">
<title>PatientHistoryFormComponent</title>
<polygon fill="#ffffb3" stroke="black" points="3781.04,-84.8 3588.96,-84.8 3588.96,-48.8 3781.04,-48.8 3781.04,-84.8"/>
<text text-anchor="middle" x="3685" y="-62.6" font-family="Times,serif" font-size="14.00">PatientHistoryFormComponent</text>
</g>
<!-- PatientHistoryFormComponent&#45;&gt;AppModule -->
<g id="edge43" class="edge">
<title>PatientHistoryFormComponent&#45;&gt;AppModule</title>
<path fill="none" stroke="black" d="M3685,-84.82C3685,-102.17 3685,-125.8 3685,-125.8 3685,-125.8 5308.18,-125.8 5308.18,-125.8"/>
<polygon fill="black" stroke="black" points="5308.18,-129.3 5318.18,-125.8 5308.18,-122.3 5308.18,-129.3"/>
</g>
<!-- PatientListComponent -->
<g id="node43" class="node">
<title>PatientListComponent</title>
<polygon fill="#ffffb3" stroke="black" points="3570.99,-84.8 3429.01,-84.8 3429.01,-48.8 3570.99,-48.8 3570.99,-84.8"/>
<text text-anchor="middle" x="3500" y="-62.6" font-family="Times,serif" font-size="14.00">PatientListComponent</text>
</g>
<!-- PatientListComponent&#45;&gt;AppModule -->
<g id="edge44" class="edge">
<title>PatientListComponent&#45;&gt;AppModule</title>
<path fill="none" stroke="black" d="M3500,-84.8C3500,-102.48 3500,-126.8 3500,-126.8 3500,-126.8 5308.1,-126.8 5308.1,-126.8"/>
<polygon fill="black" stroke="black" points="5308.1,-130.3 5318.1,-126.8 5308.1,-123.3 5308.1,-130.3"/>
</g>
<!-- PatientListDialogComponent -->
<g id="node44" class="node">
<title>PatientListDialogComponent</title>
<polygon fill="#ffffb3" stroke="black" points="3411.1,-84.8 3230.9,-84.8 3230.9,-48.8 3411.1,-48.8 3411.1,-84.8"/>
<text text-anchor="middle" x="3321" y="-62.6" font-family="Times,serif" font-size="14.00">PatientListDialogComponent</text>
</g>
<!-- PatientListDialogComponent&#45;&gt;AppModule -->
<g id="edge45" class="edge">
<title>PatientListDialogComponent&#45;&gt;AppModule</title>
<path fill="none" stroke="black" d="M3321,-85.1C3321,-103.07 3321,-127.8 3321,-127.8 3321,-127.8 5307.88,-127.8 5307.88,-127.8"/>
<polygon fill="black" stroke="black" points="5307.88,-131.3 5317.88,-127.8 5307.88,-124.3 5307.88,-131.3"/>
</g>
<!-- ProviderChartsTabComponent -->
<g id="node45" class="node">
<title>ProviderChartsTabComponent</title>
<polygon fill="#ffffb3" stroke="black" points="3212.86,-84.8 3025.14,-84.8 3025.14,-48.8 3212.86,-48.8 3212.86,-84.8"/>
<text text-anchor="middle" x="3119" y="-62.6" font-family="Times,serif" font-size="14.00">ProviderChartsTabComponent</text>
</g>
<!-- ProviderChartsTabComponent&#45;&gt;AppModule -->
<g id="edge46" class="edge">
<title>ProviderChartsTabComponent&#45;&gt;AppModule</title>
<path fill="none" stroke="black" d="M3087.69,-85.02C3087.69,-103.63 3087.69,-129.8 3087.69,-129.8 3087.69,-129.8 5308.13,-129.8 5308.13,-129.8"/>
<polygon fill="black" stroke="black" points="5308.13,-133.3 5318.13,-129.8 5308.13,-126.3 5308.13,-133.3"/>
</g>
<!-- ProviderChartsTabComponent&#45;&gt;AppModule -->
<g id="edge47" class="edge">
<title>ProviderChartsTabComponent&#45;&gt;AppModule</title>
<path fill="none" stroke="black" d="M3150.31,-85.07C3150.31,-103.36 3150.31,-128.8 3150.31,-128.8 3150.31,-128.8 5308.32,-128.8 5308.32,-128.8"/>
<polygon fill="black" stroke="black" points="5308.32,-132.3 5318.32,-128.8 5308.32,-125.3 5308.32,-132.3"/>
</g>
<!-- PsychosocialFormComponent -->
<g id="node46" class="node">
<title>PsychosocialFormComponent</title>
<polygon fill="#ffffb3" stroke="black" points="3007.26,-84.8 2822.74,-84.8 2822.74,-48.8 3007.26,-48.8 3007.26,-84.8"/>
<text text-anchor="middle" x="2915" y="-62.6" font-family="Times,serif" font-size="14.00">PsychosocialFormComponent</text>
</g>
<!-- PsychosocialFormComponent&#45;&gt;AppModule -->
<g id="edge48" class="edge">
<title>PsychosocialFormComponent&#45;&gt;AppModule</title>
<path fill="none" stroke="black" d="M2915,-84.97C2915,-103.89 2915,-130.8 2915,-130.8 2915,-130.8 5308.33,-130.8 5308.33,-130.8"/>
<polygon fill="black" stroke="black" points="5308.33,-134.3 5318.33,-130.8 5308.33,-127.3 5308.33,-134.3"/>
</g>
<!-- PsychosocialInfoComponent -->
<g id="node47" class="node">
<title>PsychosocialInfoComponent</title>
<polygon fill="#ffffb3" stroke="black" points="2804.75,-84.8 2627.25,-84.8 2627.25,-48.8 2804.75,-48.8 2804.75,-84.8"/>
<text text-anchor="middle" x="2716" y="-62.6" font-family="Times,serif" font-size="14.00">PsychosocialInfoComponent</text>
</g>
<!-- PsychosocialInfoComponent&#45;&gt;AppModule -->
<g id="edge49" class="edge">
<title>PsychosocialInfoComponent&#45;&gt;AppModule</title>
<path fill="none" stroke="black" d="M2716,-84.91C2716,-104.14 2716,-131.8 2716,-131.8 2716,-131.8 5308.2,-131.8 5308.2,-131.8"/>
<polygon fill="black" stroke="black" points="5308.2,-135.3 5318.2,-131.8 5308.2,-128.3 5308.2,-135.3"/>
</g>
<!-- RespiratoryFormComponent -->
<g id="node48" class="node">
<title>RespiratoryFormComponent</title>
<polygon fill="#ffffb3" stroke="black" points="2609.48,-84.8 2432.52,-84.8 2432.52,-48.8 2609.48,-48.8 2609.48,-84.8"/>
<text text-anchor="middle" x="2521" y="-62.6" font-family="Times,serif" font-size="14.00">RespiratoryFormComponent</text>
</g>
<!-- RespiratoryFormComponent&#45;&gt;AppModule -->
<g id="edge50" class="edge">
<title>RespiratoryFormComponent&#45;&gt;AppModule</title>
<path fill="none" stroke="black" d="M2521,-85.11C2521,-104.95 2521,-133.8 2521,-133.8 2521,-133.8 5308.22,-133.8 5308.22,-133.8"/>
<polygon fill="black" stroke="black" points="5308.22,-137.3 5318.22,-133.8 5308.22,-130.3 5308.22,-137.3"/>
</g>
<!-- RespiratoryInfoComponent -->
<g id="node49" class="node">
<title>RespiratoryInfoComponent</title>
<polygon fill="#ffffb3" stroke="black" points="2414.97,-84.8 2245.03,-84.8 2245.03,-48.8 2414.97,-48.8 2414.97,-84.8"/>
<text text-anchor="middle" x="2330" y="-62.6" font-family="Times,serif" font-size="14.00">RespiratoryInfoComponent</text>
</g>
<!-- RespiratoryInfoComponent&#45;&gt;AppModule -->
<g id="edge51" class="edge">
<title>RespiratoryInfoComponent&#45;&gt;AppModule</title>
<path fill="none" stroke="black" d="M2330,-85.02C2330,-105.17 2330,-134.8 2330,-134.8 2330,-134.8 5308.32,-134.8 5308.32,-134.8"/>
<polygon fill="black" stroke="black" points="5308.32,-138.3 5318.32,-134.8 5308.32,-131.3 5308.32,-138.3"/>
</g>
<!-- StudentListComponent -->
<g id="node50" class="node">
<title>StudentListComponent</title>
<polygon fill="#ffffb3" stroke="black" points="2226.89,-84.8 2081.11,-84.8 2081.11,-48.8 2226.89,-48.8 2226.89,-84.8"/>
<text text-anchor="middle" x="2154" y="-62.6" font-family="Times,serif" font-size="14.00">StudentListComponent</text>
</g>
<!-- StudentListComponent&#45;&gt;AppModule -->
<g id="edge52" class="edge">
<title>StudentListComponent&#45;&gt;AppModule</title>
<path fill="none" stroke="black" d="M2154,-84.93C2154,-105.37 2154,-135.8 2154,-135.8 2154,-135.8 5308.29,-135.8 5308.29,-135.8"/>
<polygon fill="black" stroke="black" points="5308.29,-139.3 5318.29,-135.8 5308.29,-132.3 5308.29,-139.3"/>
</g>
<!-- StudentPatientSelectDialogComponent -->
<g id="node51" class="node">
<title>StudentPatientSelectDialogComponent</title>
<polygon fill="#ffffb3" stroke="black" points="2062.8,-84.8 1827.2,-84.8 1827.2,-48.8 2062.8,-48.8 2062.8,-84.8"/>
<text text-anchor="middle" x="1945" y="-62.6" font-family="Times,serif" font-size="14.00">StudentPatientSelectDialogComponent</text>
</g>
<!-- StudentPatientSelectDialogComponent&#45;&gt;AppModule -->
<g id="edge53" class="edge">
<title>StudentPatientSelectDialogComponent&#45;&gt;AppModule</title>
<path fill="none" stroke="black" d="M1945,-84.83C1945,-105.57 1945,-136.8 1945,-136.8 1945,-136.8 5308.05,-136.8 5308.05,-136.8"/>
<polygon fill="black" stroke="black" points="5308.05,-140.3 5318.05,-136.8 5308.05,-133.3 5308.05,-140.3"/>
</g>
<!-- TabComponent -->
<g id="node52" class="node">
<title>TabComponent</title>
<polygon fill="#ffffb3" stroke="black" points="1809.6,-84.8 1706.4,-84.8 1706.4,-48.8 1809.6,-48.8 1809.6,-84.8"/>
<text text-anchor="middle" x="1758" y="-62.6" font-family="Times,serif" font-size="14.00">TabComponent</text>
</g>
<!-- TabComponent&#45;&gt;AppModule -->
<g id="edge54" class="edge">
<title>TabComponent&#45;&gt;AppModule</title>
<path fill="none" stroke="black" d="M1758,-85.08C1758,-106.12 1758,-137.8 1758,-137.8 1758,-137.8 5308.3,-137.8 5308.3,-137.8"/>
<polygon fill="black" stroke="black" points="5308.3,-141.3 5318.3,-137.8 5308.3,-134.3 5308.3,-141.3"/>
</g>
<!-- UniqueEntryValidatorDirective -->
<g id="node53" class="node">
<title>UniqueEntryValidatorDirective</title>
<polygon fill="#ffffb3" stroke="black" points="1688.77,-84.8 1495.23,-84.8 1495.23,-48.8 1688.77,-48.8 1688.77,-84.8"/>
<text text-anchor="middle" x="1592" y="-62.6" font-family="Times,serif" font-size="14.00">UniqueEntryValidatorDirective</text>
</g>
<!-- UniqueEntryValidatorDirective&#45;&gt;AppModule -->
<g id="edge55" class="edge">
<title>UniqueEntryValidatorDirective&#45;&gt;AppModule</title>
<path fill="none" stroke="black" d="M1592,-84.97C1592,-106.3 1592,-138.8 1592,-138.8 1592,-138.8 5308.33,-138.8 5308.33,-138.8"/>
<polygon fill="black" stroke="black" points="5308.33,-142.3 5318.33,-138.8 5308.33,-135.3 5308.33,-142.3"/>
</g>
<!-- UserProfileComponent -->
<g id="node54" class="node">
<title>UserProfileComponent</title>
<polygon fill="#ffffb3" stroke="black" points="1476.86,-84.8 1331.14,-84.8 1331.14,-48.8 1476.86,-48.8 1476.86,-84.8"/>
<text text-anchor="middle" x="1404" y="-62.6" font-family="Times,serif" font-size="14.00">UserProfileComponent</text>
</g>
<!-- UserProfileComponent&#45;&gt;AppModule -->
<g id="edge56" class="edge">
<title>UserProfileComponent&#45;&gt;AppModule</title>
<path fill="none" stroke="black" d="M1404,-84.84C1404,-106.46 1404,-139.8 1404,-139.8 1404,-139.8 5308.25,-139.8 5308.25,-139.8"/>
<polygon fill="black" stroke="black" points="5308.25,-143.3 5318.25,-139.8 5308.25,-136.3 5308.25,-143.3"/>
</g>
<!-- UserRegistrationComponent -->
<g id="node55" class="node">
<title>UserRegistrationComponent</title>
<polygon fill="#ffffb3" stroke="black" points="1313.19,-84.8 1136.81,-84.8 1136.81,-48.8 1313.19,-48.8 1313.19,-84.8"/>
<text text-anchor="middle" x="1225" y="-62.6" font-family="Times,serif" font-size="14.00">UserRegistrationComponent</text>
</g>
<!-- UserRegistrationComponent&#45;&gt;AppModule -->
<g id="edge57" class="edge">
<title>UserRegistrationComponent&#45;&gt;AppModule</title>
<path fill="none" stroke="black" d="M1225,-85.09C1225,-107.01 1225,-140.8 1225,-140.8 1225,-140.8 5308.07,-140.8 5308.07,-140.8"/>
<polygon fill="black" stroke="black" points="5308.07,-144.3 5318.07,-140.8 5308.07,-137.3 5308.07,-144.3"/>
</g>
<!-- VitalsChartComponent -->
<g id="node56" class="node">
<title>VitalsChartComponent</title>
<polygon fill="#ffffb3" stroke="black" points="1118.87,-84.8 973.13,-84.8 973.13,-48.8 1118.87,-48.8 1118.87,-84.8"/>
<text text-anchor="middle" x="1046" y="-62.6" font-family="Times,serif" font-size="14.00">VitalsChartComponent</text>
</g>
<!-- VitalsChartComponent&#45;&gt;AppModule -->
<g id="edge58" class="edge">
<title>VitalsChartComponent&#45;&gt;AppModule</title>
<path fill="none" stroke="black" d="M1046,-84.81C1046,-107.29 1046,-142.8 1046,-142.8 1046,-142.8 5308.34,-142.8 5308.34,-142.8"/>
<polygon fill="black" stroke="black" points="5308.34,-146.3 5318.34,-142.8 5308.34,-139.3 5308.34,-146.3"/>
</g>
<!-- VitalsFormComponent -->
<g id="node57" class="node">
<title>VitalsFormComponent</title>
<polygon fill="#ffffb3" stroke="black" points="955.6,-84.8 810.4,-84.8 810.4,-48.8 955.6,-48.8 955.6,-84.8"/>
<text text-anchor="middle" x="883" y="-62.6" font-family="Times,serif" font-size="14.00">VitalsFormComponent</text>
</g>
<!-- VitalsFormComponent&#45;&gt;AppModule -->
<g id="edge59" class="edge">
<title>VitalsFormComponent&#45;&gt;AppModule</title>
<path fill="none" stroke="black" d="M883,-85.05C883,-107.82 883,-143.8 883,-143.8 883,-143.8 5308.19,-143.8 5308.19,-143.8"/>
<polygon fill="black" stroke="black" points="5308.19,-147.3 5318.19,-143.8 5308.19,-140.3 5308.19,-147.3"/>
</g>
<!-- VitalsTabComponent -->
<g id="node58" class="node">
<title>VitalsTabComponent</title>
<polygon fill="#ffffb3" stroke="black" points="792.04,-84.8 655.96,-84.8 655.96,-48.8 792.04,-48.8 792.04,-84.8"/>
<text text-anchor="middle" x="724" y="-62.6" font-family="Times,serif" font-size="14.00">VitalsTabComponent</text>
</g>
<!-- VitalsTabComponent&#45;&gt;AppModule -->
<g id="edge60" class="edge">
<title>VitalsTabComponent&#45;&gt;AppModule</title>
<path fill="none" stroke="black" d="M724,-84.89C724,-107.93 724,-144.8 724,-144.8 724,-144.8 5308.15,-144.8 5308.15,-144.8"/>
<polygon fill="black" stroke="black" points="5308.15,-148.3 5318.15,-144.8 5308.15,-141.3 5308.15,-148.3"/>
</g>
<!-- AppComponent  -->
<g id="node61" class="node">
<title>AppComponent </title>
<polygon fill="#80b1d3" stroke="black" points="5414.44,-214.8 5305.56,-214.8 5305.56,-178.8 5414.44,-178.8 5414.44,-214.8"/>
<text text-anchor="middle" x="5360" y="-192.6" font-family="Times,serif" font-size="14.00">AppComponent </text>
</g>
<!-- AppModule&#45;&gt;AppComponent  -->
<g id="edge62" class="edge">
<title>AppModule&#45;&gt;AppComponent </title>
<path fill="none" stroke="black" stroke-dasharray="1,5" d="M5360,-149.91C5360,-149.91 5360,-168.79 5360,-168.79"/>
<polygon fill="black" stroke="black" points="5356.5,-168.79 5360,-178.79 5363.5,-168.79 5356.5,-168.79"/>
</g>
<!-- AppRoutingModule -->
<g id="node60" class="node">
<title>AppRoutingModule</title>
<polygon fill="#8dd3c7" stroke="black" points="632.27,-84.8 629.27,-88.8 608.27,-88.8 605.27,-84.8 503.73,-84.8 503.73,-48.8 632.27,-48.8 632.27,-84.8"/>
<text text-anchor="middle" x="568" y="-62.6" font-family="Times,serif" font-size="14.00">AppRoutingModule</text>
</g>
<!-- AppRoutingModule&#45;&gt;AppModule -->
<g id="edge61" class="edge">
<title>AppRoutingModule&#45;&gt;AppModule</title>
<path fill="none" stroke="black" d="M568,-85.12C568,-108.46 568,-145.8 568,-145.8 568,-145.8 5308.21,-145.8 5308.21,-145.8"/>
<polygon fill="black" stroke="black" points="5308.21,-149.3 5318.21,-145.8 5308.21,-142.3 5308.21,-149.3"/>
</g>
<!-- AuthService -->
<g id="node62" class="node">
<title>AuthService</title>
<ellipse fill="#fdb462" stroke="black" cx="421" cy="-66.8" rx="59.11" ry="18"/>
<text text-anchor="middle" x="421" y="-62.6" font-family="Times,serif" font-size="14.00">AuthService</text>
</g>
<!-- AuthService&#45;&gt;AppModule -->
<g id="edge63" class="edge">
<title>AuthService&#45;&gt;AppModule</title>
<path fill="none" stroke="black" d="M421,-84.95C421,-108.56 421,-146.8 421,-146.8 421,-146.8 5308.05,-146.8 5308.05,-146.8"/>
<polygon fill="black" stroke="black" points="5308.05,-150.3 5318.05,-146.8 5308.05,-143.3 5308.05,-150.3"/>
</g>
<!-- MedicationService -->
<g id="node63" class="node">
<title>MedicationService</title>
<ellipse fill="#fdb462" stroke="black" cx="260" cy="-66.8" rx="83.95" ry="18"/>
<text text-anchor="middle" x="260" y="-62.6" font-family="Times,serif" font-size="14.00">MedicationService</text>
</g>
<!-- MedicationService&#45;&gt;AppModule -->
<g id="edge64" class="edge">
<title>MedicationService&#45;&gt;AppModule</title>
<path fill="none" stroke="black" d="M260,-85.18C260,-109.08 260,-147.8 260,-147.8 260,-147.8 5308.2,-147.8 5308.2,-147.8"/>
<polygon fill="black" stroke="black" points="5308.2,-151.3 5318.2,-147.8 5308.2,-144.3 5308.2,-151.3"/>
</g>
<!-- PatientService -->
<g id="node64" class="node">
<title>PatientService</title>
<ellipse fill="#fdb462" stroke="black" cx="91" cy="-66.8" rx="66.63" ry="18"/>
<text text-anchor="middle" x="91" y="-62.6" font-family="Times,serif" font-size="14.00">PatientService</text>
</g>
<!-- PatientService&#45;&gt;AppModule -->
<g id="edge65" class="edge">
<title>PatientService&#45;&gt;AppModule</title>
<path fill="none" stroke="black" d="M91,-85C91,-109.16 91,-148.8 91,-148.8 91,-148.8 5307.97,-148.8 5307.97,-148.8"/>
<polygon fill="black" stroke="black" points="5307.97,-152.3 5317.97,-148.8 5307.97,-145.3 5307.97,-152.3"/>
</g>
</g>
</svg>
