<?xml version="1.0" encoding="UTF-8" standalone="no"?>
<!DOCTYPE svg PUBLIC "-//W3C//DTD SVG 1.1//EN"
 "http://www.w3.org/Graphics/SVG/1.1/DTD/svg11.dtd">
<!-- Generated by graphviz version 3.0.0 (20220226.1711)
 -->
<!-- Title: dependencies Pages: 1 -->
<svg width="4005pt" height="247pt"
 viewBox="0.00 0.00 4005.00 246.80" xmlns="http://www.w3.org/2000/svg" xmlns:xlink="http://www.w3.org/1999/xlink">
<g id="graph0" class="graph" transform="scale(1 1) rotate(0) translate(4 242.8)">
<title>dependencies</title>
<polygon fill="white" stroke="transparent" points="-4,4 -4,-242.8 4001,-242.8 4001,4 -4,4"/>
<text text-anchor="middle" x="1998.5" y="-8.2" font-family="sans-serif" font-size="14.00">dependencies</text>
<g id="clust1" class="cluster">
<title>cluster_AppModule</title>
<polygon fill="none" stroke="black" stroke-dasharray="1,5" points="8,-32.8 8,-230.8 3989,-230.8 3989,-32.8 8,-32.8"/>
</g>
<g id="clust2" class="cluster">
<title>cluster_AppModule_declarations</title>
<polygon fill="none" stroke="black" points="1633,-40.8 1633,-92.8 3981,-92.8 3981,-40.8 1633,-40.8"/>
</g>
<g id="clust20" class="cluster">
<title>cluster_AppModule_providers</title>
<polygon fill="none" stroke="black" points="732,-40.8 732,-92.8 1625,-92.8 1625,-40.8 732,-40.8"/>
</g>
<g id="clust17" class="cluster">
<title>cluster_AppModule_imports</title>
<polygon fill="none" stroke="black" points="16,-40.8 16,-92.8 724,-92.8 724,-40.8 16,-40.8"/>
</g>
<g id="clust19" class="cluster">
<title>cluster_AppModule_bootstrap</title>
<polygon fill="none" stroke="black" points="1906,-170.8 1906,-222.8 2030,-222.8 2030,-170.8 1906,-170.8"/>
</g>
<!-- AboutUsComponent -->
<g id="node1" class="node">
<title>AboutUsComponent</title>
<polygon fill="#ffffb3" stroke="black" points="3972.89,-84.8 3841.11,-84.8 3841.11,-48.8 3972.89,-48.8 3972.89,-84.8"/>
<text text-anchor="middle" x="3907" y="-62.6" font-family="Times,serif" font-size="14.00">AboutUsComponent</text>
</g>
<!-- AppModule -->
<g id="node15" class="node">
<title>AppModule</title>
<polygon fill="#8dd3c7" stroke="black" points="2009.66,-149.8 2006.66,-153.8 1985.66,-153.8 1982.66,-149.8 1926.34,-149.8 1926.34,-113.8 2009.66,-113.8 2009.66,-149.8"/>
<text text-anchor="middle" x="1968" y="-127.6" font-family="Times,serif" font-size="14.00">AppModule</text>
</g>
<!-- AboutUsComponent&#45;&gt;AppModule -->
<g id="edge1" class="edge">
<title>AboutUsComponent&#45;&gt;AppModule</title>
<path fill="none" stroke="black" d="M3907,-85.18C3907,-109.08 3907,-147.8 3907,-147.8 3907,-147.8 2019.85,-147.8 2019.85,-147.8"/>
<polygon fill="black" stroke="black" points="2019.85,-144.3 2009.85,-147.8 2019.85,-151.3 2019.85,-144.3"/>
</g>
<!-- AppComponent -->
<g id="node2" class="node">
<title>AppComponent</title>
<polygon fill="#ffffb3" stroke="black" points="3822.94,-84.8 3717.06,-84.8 3717.06,-48.8 3822.94,-48.8 3822.94,-84.8"/>
<text text-anchor="middle" x="3770" y="-62.6" font-family="Times,serif" font-size="14.00">AppComponent</text>
</g>
<!-- AppComponent&#45;&gt;AppModule -->
<g id="edge2" class="edge">
<title>AppComponent&#45;&gt;AppModule</title>
<path fill="none" stroke="black" d="M3770,-84.89C3770,-107.93 3770,-144.8 3770,-144.8 3770,-144.8 2019.89,-144.8 2019.89,-144.8"/>
<polygon fill="black" stroke="black" points="2019.89,-141.3 2009.89,-144.8 2019.89,-148.3 2019.89,-141.3"/>
</g>
<!-- CreatePatientComponent -->
<g id="node3" class="node">
<title>CreatePatientComponent</title>
<polygon fill="#ffffb3" stroke="black" points="3699.25,-84.8 3542.75,-84.8 3542.75,-48.8 3699.25,-48.8 3699.25,-84.8"/>
<text text-anchor="middle" x="3621" y="-62.6" font-family="Times,serif" font-size="14.00">CreatePatientComponent</text>
</g>
<!-- CreatePatientComponent&#45;&gt;AppModule -->
<g id="edge3" class="edge">
<title>CreatePatientComponent&#45;&gt;AppModule</title>
<path fill="none" stroke="black" d="M3621,-84.96C3621,-107.15 3621,-141.8 3621,-141.8 3621,-141.8 2019.69,-141.8 2019.69,-141.8"/>
<polygon fill="black" stroke="black" points="2019.69,-138.3 2009.69,-141.8 2019.69,-145.3 2019.69,-138.3"/>
</g>
<!-- ForgotPasswordComponent -->
<g id="node4" class="node">
<title>ForgotPasswordComponent</title>
<polygon fill="#ffffb3" stroke="black" points="3524.34,-84.8 3351.66,-84.8 3351.66,-48.8 3524.34,-48.8 3524.34,-84.8"/>
<text text-anchor="middle" x="3438" y="-62.6" font-family="Times,serif" font-size="14.00">ForgotPasswordComponent</text>
</g>
<!-- ForgotPasswordComponent&#45;&gt;AppModule -->
<g id="edge4" class="edge">
<title>ForgotPasswordComponent&#45;&gt;AppModule</title>
<path fill="none" stroke="black" d="M3438,-84.97C3438,-106.3 3438,-138.8 3438,-138.8 3438,-138.8 2020.02,-138.8 2020.02,-138.8"/>
<polygon fill="black" stroke="black" points="2020.02,-135.3 2010.02,-138.8 2020.02,-142.3 2020.02,-135.3"/>
</g>
<!-- LoginComponent -->
<g id="node5" class="node">
<title>LoginComponent</title>
<polygon fill="#ffffb3" stroke="black" points="3333.27,-84.8 3218.73,-84.8 3218.73,-48.8 3333.27,-48.8 3333.27,-84.8"/>
<text text-anchor="middle" x="3276" y="-62.6" font-family="Times,serif" font-size="14.00">LoginComponent</text>
</g>
<!-- LoginComponent&#45;&gt;AppModule -->
<g id="edge5" class="edge">
<title>LoginComponent&#45;&gt;AppModule</title>
<path fill="none" stroke="black" d="M3276,-84.83C3276,-105.57 3276,-136.8 3276,-136.8 3276,-136.8 2019.67,-136.8 2019.67,-136.8"/>
<polygon fill="black" stroke="black" points="2019.67,-133.3 2009.67,-136.8 2019.67,-140.3 2019.67,-133.3"/>
</g>
<!-- NavBarComponent -->
<g id="node6" class="node">
<title>NavBarComponent</title>
<polygon fill="#ffffb3" stroke="black" points="3200.37,-84.8 3075.63,-84.8 3075.63,-48.8 3200.37,-48.8 3200.37,-84.8"/>
<text text-anchor="middle" x="3138" y="-62.6" font-family="Times,serif" font-size="14.00">NavBarComponent</text>
</g>
<!-- NavBarComponent&#45;&gt;AppModule -->
<g id="edge6" class="edge">
<title>NavBarComponent&#45;&gt;AppModule</title>
<path fill="none" stroke="black" d="M3138,-85.11C3138,-104.95 3138,-133.8 3138,-133.8 3138,-133.8 2019.99,-133.8 2019.99,-133.8"/>
<polygon fill="black" stroke="black" points="2019.99,-130.3 2009.99,-133.8 2019.99,-137.3 2019.99,-130.3"/>
</g>
<!-- PageComponent -->
<g id="node7" class="node">
<title>PageComponent</title>
<polygon fill="#ffffb3" stroke="black" points="3057.05,-84.8 2948.95,-84.8 2948.95,-48.8 3057.05,-48.8 3057.05,-84.8"/>
<text text-anchor="middle" x="3003" y="-62.6" font-family="Times,serif" font-size="14.00">PageComponent</text>
</g>
<!-- PageComponent&#45;&gt;AppModule -->
<g id="edge7" class="edge">
<title>PageComponent&#45;&gt;AppModule</title>
<path fill="none" stroke="black" d="M3003,-84.97C3003,-103.89 3003,-130.8 3003,-130.8 3003,-130.8 2019.86,-130.8 2019.86,-130.8"/>
<polygon fill="black" stroke="black" points="2019.86,-127.3 2009.86,-130.8 2019.86,-134.3 2019.86,-127.3"/>
</g>
<!-- PageNotFoundComponent -->
<g id="node8" class="node">
<title>PageNotFoundComponent</title>
<polygon fill="#ffffb3" stroke="black" points="2930.83,-84.8 2765.17,-84.8 2765.17,-48.8 2930.83,-48.8 2930.83,-84.8"/>
<text text-anchor="middle" x="2848" y="-62.6" font-family="Times,serif" font-size="14.00">PageNotFoundComponent</text>
</g>
<!-- PageNotFoundComponent&#45;&gt;AppModule -->
<g id="edge8" class="edge">
<title>PageNotFoundComponent&#45;&gt;AppModule</title>
<path fill="none" stroke="black" d="M2848,-85.1C2848,-103.07 2848,-127.8 2848,-127.8 2848,-127.8 2019.85,-127.8 2019.85,-127.8"/>
<polygon fill="black" stroke="black" points="2019.85,-124.3 2009.85,-127.8 2019.85,-131.3 2019.85,-124.3"/>
</g>
<!-- PatientFormComponent -->
<g id="node9" class="node">
<title>PatientFormComponent</title>
<polygon fill="#ffffb3" stroke="black" points="2747.05,-84.8 2596.95,-84.8 2596.95,-48.8 2747.05,-48.8 2747.05,-84.8"/>
<text text-anchor="middle" x="2672" y="-62.6" font-family="Times,serif" font-size="14.00">PatientFormComponent</text>
</g>
<!-- PatientFormComponent&#45;&gt;AppModule -->
<g id="edge9" class="edge">
<title>PatientFormComponent&#45;&gt;AppModule</title>
<path fill="none" stroke="black" d="M2672,-84.82C2672,-102.17 2672,-125.8 2672,-125.8 2672,-125.8 2019.67,-125.8 2019.67,-125.8"/>
<polygon fill="black" stroke="black" points="2019.67,-122.3 2009.67,-125.8 2019.67,-129.3 2019.67,-122.3"/>
</g>
<!-- PatientListComponent -->
<g id="node10" class="node">
<title>PatientListComponent</title>
<polygon fill="#ffffb3" stroke="black" points="2578.99,-84.8 2437.01,-84.8 2437.01,-48.8 2578.99,-48.8 2578.99,-84.8"/>
<text text-anchor="middle" x="2508" y="-62.6" font-family="Times,serif" font-size="14.00">PatientListComponent</text>
</g>
<!-- PatientListComponent&#45;&gt;AppModule -->
<g id="edge10" class="edge">
<title>PatientListComponent&#45;&gt;AppModule</title>
<path fill="none" stroke="black" d="M2508,-84.83C2508,-101.2 2508,-122.8 2508,-122.8 2508,-122.8 2019.92,-122.8 2019.92,-122.8"/>
<polygon fill="black" stroke="black" points="2019.92,-119.3 2009.92,-122.8 2019.92,-126.3 2019.92,-119.3"/>
</g>
<!-- PatientListDialogComponent -->
<g id="node11" class="node">
<title>PatientListDialogComponent</title>
<polygon fill="#ffffb3" stroke="black" points="2419.1,-84.8 2238.9,-84.8 2238.9,-48.8 2419.1,-48.8 2419.1,-84.8"/>
<text text-anchor="middle" x="2329" y="-62.6" font-family="Times,serif" font-size="14.00">PatientListDialogComponent</text>
</g>
<!-- PatientListDialogComponent&#45;&gt;AppModule -->
<g id="edge11" class="edge">
<title>PatientListDialogComponent&#45;&gt;AppModule</title>
<path fill="none" stroke="black" d="M2329,-85.04C2329,-100.37 2329,-119.8 2329,-119.8 2329,-119.8 2019.76,-119.8 2019.76,-119.8"/>
<polygon fill="black" stroke="black" points="2019.76,-116.3 2009.76,-119.8 2019.76,-123.3 2019.76,-116.3"/>
</g>
<!-- StudentDialogComponent -->
<g id="node12" class="node">
<title>StudentDialogComponent</title>
<polygon fill="#ffffb3" stroke="black" points="2221.21,-84.8 2058.79,-84.8 2058.79,-48.8 2221.21,-48.8 2221.21,-84.8"/>
<text text-anchor="middle" x="2140" y="-62.6" font-family="Times,serif" font-size="14.00">StudentDialogComponent</text>
</g>
<!-- StudentDialogComponent&#45;&gt;AppModule -->
<g id="edge12" class="edge">
<title>StudentDialogComponent&#45;&gt;AppModule</title>
<path fill="none" stroke="black" d="M2140,-84.85C2140,-99.17 2140,-116.8 2140,-116.8 2140,-116.8 2020.08,-116.8 2020.08,-116.8"/>
<polygon fill="black" stroke="black" points="2020.08,-113.3 2010.08,-116.8 2020.08,-120.3 2020.08,-113.3"/>
</g>
<!-- StudentListComponent -->
<g id="node13" class="node">
<title>StudentListComponent</title>
<polygon fill="#ffffb3" stroke="black" points="2040.89,-84.8 1895.11,-84.8 1895.11,-48.8 2040.89,-48.8 2040.89,-84.8"/>
<text text-anchor="middle" x="1968" y="-62.6" font-family="Times,serif" font-size="14.00">StudentListComponent</text>
</g>
<!-- StudentListComponent&#45;&gt;AppModule -->
<g id="edge13" class="edge">
<title>StudentListComponent&#45;&gt;AppModule</title>
<path fill="none" stroke="black" d="M1968,-84.91C1968,-84.91 1968,-103.79 1968,-103.79"/>
<polygon fill="black" stroke="black" points="1964.5,-103.79 1968,-113.79 1971.5,-103.79 1964.5,-103.79"/>
</g>
<!-- StudentPatientSelectDialogComponent -->
<g id="node14" class="node">
<title>StudentPatientSelectDialogComponent</title>
<polygon fill="#ffffb3" stroke="black" points="1876.8,-84.8 1641.2,-84.8 1641.2,-48.8 1876.8,-48.8 1876.8,-84.8"/>
<text text-anchor="middle" x="1759" y="-62.6" font-family="Times,serif" font-size="14.00">StudentPatientSelectDialogComponent</text>
</g>
<!-- StudentPatientSelectDialogComponent&#45;&gt;AppModule -->
<g id="edge14" class="edge">
<title>StudentPatientSelectDialogComponent&#45;&gt;AppModule</title>
<path fill="none" stroke="black" d="M1759,-84.85C1759,-99.17 1759,-116.8 1759,-116.8 1759,-116.8 1916.21,-116.8 1916.21,-116.8"/>
<polygon fill="black" stroke="black" points="1916.21,-120.3 1926.21,-116.8 1916.21,-113.3 1916.21,-120.3"/>
</g>
<!-- AppComponent  -->
<g id="node21" class="node">
<title>AppComponent </title>
<polygon fill="#80b1d3" stroke="black" points="2022.44,-214.8 1913.56,-214.8 1913.56,-178.8 2022.44,-178.8 2022.44,-214.8"/>
<text text-anchor="middle" x="1968" y="-192.6" font-family="Times,serif" font-size="14.00">AppComponent </text>
</g>
<!-- AppModule&#45;&gt;AppComponent  -->
<g id="edge20" class="edge">
<title>AppModule&#45;&gt;AppComponent </title>
<path fill="none" stroke="black" stroke-dasharray="1,5" d="M1968,-149.91C1968,-149.91 1968,-168.79 1968,-168.79"/>
<polygon fill="black" stroke="black" points="1964.5,-168.79 1968,-178.79 1971.5,-168.79 1964.5,-168.79"/>
</g>
<!-- AppRoutingModule -->
<g id="node16" class="node">
<title>AppRoutingModule</title>
<polygon fill="#8dd3c7" stroke="black" points="716.28,-84.8 713.28,-88.8 692.28,-88.8 689.28,-84.8 587.72,-84.8 587.72,-48.8 716.28,-48.8 716.28,-84.8"/>
<text text-anchor="middle" x="652" y="-62.6" font-family="Times,serif" font-size="14.00">AppRoutingModule</text>
</g>
<!-- AppRoutingModule&#45;&gt;AppModule -->
<g id="edge15" class="edge">
<title>AppRoutingModule&#45;&gt;AppModule</title>
<path fill="none" stroke="black" d="M652,-84.83C652,-105.57 652,-136.8 652,-136.8 652,-136.8 1916.07,-136.8 1916.07,-136.8"/>
<polygon fill="black" stroke="black" points="1916.07,-140.3 1926.07,-136.8 1916.07,-133.3 1916.07,-140.3"/>
</g>
<!-- MedicationsModule -->
<g id="node17" class="node">
<title>MedicationsModule</title>
<polygon fill="#8dd3c7" stroke="black" points="569.26,-84.8 566.26,-88.8 545.26,-88.8 542.26,-84.8 440.74,-84.8 440.74,-48.8 569.26,-48.8 569.26,-84.8"/>
<text text-anchor="middle" x="505" y="-62.6" font-family="Times,serif" font-size="14.00">MedicationsModule</text>
</g>
<!-- MedicationsModule&#45;&gt;AppModule -->
<g id="edge16" class="edge">
<title>MedicationsModule&#45;&gt;AppModule</title>
<path fill="none" stroke="black" d="M505,-84.97C505,-106.3 505,-138.8 505,-138.8 505,-138.8 1916.18,-138.8 1916.18,-138.8"/>
<polygon fill="black" stroke="black" points="1916.18,-142.3 1926.18,-138.8 1916.18,-135.3 1916.18,-142.3"/>
</g>
<!-- PatientDashboardModule -->
<g id="node18" class="node">
<title>PatientDashboardModule</title>
<polygon fill="#8dd3c7" stroke="black" points="422.58,-84.8 419.58,-88.8 398.58,-88.8 395.58,-84.8 263.42,-84.8 263.42,-48.8 422.58,-48.8 422.58,-84.8"/>
<text text-anchor="middle" x="343" y="-62.6" font-family="Times,serif" font-size="14.00">PatientDashboardModule</text>
</g>
<!-- PatientDashboardModule&#45;&gt;AppModule -->
<g id="edge17" class="edge">
<title>PatientDashboardModule&#45;&gt;AppModule</title>
<path fill="none" stroke="black" d="M343,-84.96C343,-107.15 343,-141.8 343,-141.8 343,-141.8 1916.2,-141.8 1916.2,-141.8"/>
<polygon fill="black" stroke="black" points="1916.2,-145.3 1926.2,-141.8 1916.2,-138.3 1916.2,-145.3"/>
</g>
<!-- SettingsModule -->
<g id="node19" class="node">
<title>SettingsModule</title>
<polygon fill="#8dd3c7" stroke="black" points="245.17,-84.8 242.17,-88.8 221.17,-88.8 218.17,-84.8 140.83,-84.8 140.83,-48.8 245.17,-48.8 245.17,-84.8"/>
<text text-anchor="middle" x="193" y="-62.6" font-family="Times,serif" font-size="14.00">SettingsModule</text>
</g>
<!-- SettingsModule&#45;&gt;AppModule -->
<g id="edge18" class="edge">
<title>SettingsModule&#45;&gt;AppModule</title>
<path fill="none" stroke="black" d="M193,-84.89C193,-107.93 193,-144.8 193,-144.8 193,-144.8 1916.31,-144.8 1916.31,-144.8"/>
<polygon fill="black" stroke="black" points="1916.31,-148.3 1926.31,-144.8 1916.31,-141.3 1916.31,-148.3"/>
</g>
<!-- SharedModule -->
<g id="node20" class="node">
<title>SharedModule</title>
<polygon fill="#8dd3c7" stroke="black" points="122.43,-84.8 119.43,-88.8 98.43,-88.8 95.43,-84.8 23.57,-84.8 23.57,-48.8 122.43,-48.8 122.43,-84.8"/>
<text text-anchor="middle" x="73" y="-62.6" font-family="Times,serif" font-size="14.00">SharedModule</text>
</g>
<!-- SharedModule&#45;&gt;AppModule -->
<g id="edge19" class="edge">
<title>SharedModule&#45;&gt;AppModule</title>
<path fill="none" stroke="black" d="M73,-85.18C73,-109.08 73,-147.8 73,-147.8 73,-147.8 1916.21,-147.8 1916.21,-147.8"/>
<polygon fill="black" stroke="black" points="1916.21,-151.3 1926.21,-147.8 1916.21,-144.3 1916.21,-151.3"/>
</g>
<!-- AboutService -->
<g id="node22" class="node">
<title>AboutService</title>
<ellipse fill="#fdb462" stroke="black" cx="1553" cy="-66.8" rx="64.27" ry="18"/>
<text text-anchor="middle" x="1553" y="-62.6" font-family="Times,serif" font-size="14.00">AboutService</text>
</g>
<!-- AboutService&#45;&gt;AppModule -->
<g id="edge21" class="edge">
<title>AboutService&#45;&gt;AppModule</title>
<path fill="none" stroke="black" d="M1553,-85.04C1553,-100.37 1553,-119.8 1553,-119.8 1553,-119.8 1916.31,-119.8 1916.31,-119.8"/>
<polygon fill="black" stroke="black" points="1916.31,-123.3 1926.31,-119.8 1916.31,-116.3 1916.31,-123.3"/>
</g>
<!-- AuthService -->
<g id="node23" class="node">
<title>AuthService</title>
<ellipse fill="#fdb462" stroke="black" cx="1412" cy="-66.8" rx="59.11" ry="18"/>
<text text-anchor="middle" x="1412" y="-62.6" font-family="Times,serif" font-size="14.00">AuthService</text>
</g>
<!-- AuthService&#45;&gt;AppModule -->
<g id="edge22" class="edge">
<title>AuthService&#45;&gt;AppModule</title>
<path fill="none" stroke="black" d="M1412,-84.83C1412,-101.2 1412,-122.8 1412,-122.8 1412,-122.8 1916.21,-122.8 1916.21,-122.8"/>
<polygon fill="black" stroke="black" points="1916.21,-126.3 1926.21,-122.8 1916.21,-119.3 1916.21,-126.3"/>
</g>
<!-- MedicationService -->
<g id="node24" class="node">
<title>MedicationService</title>
<ellipse fill="#fdb462" stroke="black" cx="1251" cy="-66.8" rx="83.95" ry="18"/>
<text text-anchor="middle" x="1251" y="-62.6" font-family="Times,serif" font-size="14.00">MedicationService</text>
</g>
<!-- MedicationService&#45;&gt;AppModule -->
<g id="edge23" class="edge">
<title>MedicationService&#45;&gt;AppModule</title>
<path fill="none" stroke="black" d="M1251,-84.82C1251,-102.17 1251,-125.8 1251,-125.8 1251,-125.8 1916.09,-125.8 1916.09,-125.8"/>
<polygon fill="black" stroke="black" points="1916.09,-129.3 1926.09,-125.8 1916.09,-122.3 1916.09,-129.3"/>
</g>
<!-- PatientService -->
<g id="node25" class="node">
<title>PatientService</title>
<ellipse fill="#fdb462" stroke="black" cx="1082" cy="-66.8" rx="66.63" ry="18"/>
<text text-anchor="middle" x="1082" y="-62.6" font-family="Times,serif" font-size="14.00">PatientService</text>
</g>
<!-- PatientService&#45;&gt;AppModule -->
<g id="edge24" class="edge">
<title>PatientService&#45;&gt;AppModule</title>
<path fill="none" stroke="black" d="M1082,-85.1C1082,-103.07 1082,-127.8 1082,-127.8 1082,-127.8 1916.16,-127.8 1916.16,-127.8"/>
<polygon fill="black" stroke="black" points="1916.16,-131.3 1926.16,-127.8 1916.16,-124.3 1916.16,-131.3"/>
</g>
<!-- ToastService -->
<g id="node26" class="node">
<title>ToastService</title>
<ellipse fill="#fdb462" stroke="black" cx="936" cy="-66.8" rx="61.4" ry="18"/>
<text text-anchor="middle" x="936" y="-62.6" font-family="Times,serif" font-size="14.00">ToastService</text>
</g>
<!-- ToastService&#45;&gt;AppModule -->
<g id="edge25" class="edge">
<title>ToastService&#45;&gt;AppModule</title>
<path fill="none" stroke="black" d="M936,-84.97C936,-103.89 936,-130.8 936,-130.8 936,-130.8 1916.27,-130.8 1916.27,-130.8"/>
<polygon fill="black" stroke="black" points="1916.27,-134.3 1926.27,-130.8 1916.27,-127.3 1916.27,-134.3"/>
</g>
<!-- UserService -->
<g id="node27" class="node">
<title>UserService</title>
<ellipse fill="#fdb462" stroke="black" cx="798" cy="-66.8" rx="58.46" ry="18"/>
<text text-anchor="middle" x="798" y="-62.6" font-family="Times,serif" font-size="14.00">UserService</text>
</g>
<!-- UserService&#45;&gt;AppModule -->
<g id="edge26" class="edge">
<title>UserService&#45;&gt;AppModule</title>
<path fill="none" stroke="black" d="M798,-85.11C798,-104.95 798,-133.8 798,-133.8 798,-133.8 1916.01,-133.8 1916.01,-133.8"/>
<polygon fill="black" stroke="black" points="1916.01,-137.3 1926.01,-133.8 1916.01,-130.3 1916.01,-137.3"/>
</g>
</g>
</svg>
