<?xml version="1.0" encoding="UTF-8" standalone="no"?>
<!DOCTYPE svg PUBLIC "-//W3C//DTD SVG 1.1//EN"
 "http://www.w3.org/Graphics/SVG/1.1/DTD/svg11.dtd">
<!-- Generated by graphviz version 3.0.0 (20220226.1711)
 -->
<!-- Title: dependencies Pages: 1 -->
<svg width="8457pt" height="174pt"
 viewBox="0.00 0.00 8457.00 173.80" xmlns="http://www.w3.org/2000/svg" xmlns:xlink="http://www.w3.org/1999/xlink">
<g id="graph0" class="graph" transform="scale(1 1) rotate(0) translate(4 169.8)">
<title>dependencies</title>
<polygon fill="white" stroke="transparent" points="-4,4 -4,-169.8 8453,-169.8 8453,4 -4,4"/>
<text text-anchor="middle" x="4224.5" y="-8.2" font-family="sans-serif" font-size="14.00">dependencies</text>
<g id="clust1" class="cluster">
<title>cluster_PatientDashboardModule</title>
<polygon fill="none" stroke="black" stroke-dasharray="1,5" points="8,-32.8 8,-157.8 8441,-157.8 8441,-32.8 8,-32.8"/>
</g>
<g id="clust2" class="cluster">
<title>cluster_PatientDashboardModule_declarations</title>
<polygon fill="none" stroke="black" points="893,-40.8 893,-92.8 8433,-92.8 8433,-40.8 893,-40.8"/>
</g>
<g id="clust41" class="cluster">
<title>cluster_PatientDashboardModule_imports</title>
<polygon fill="none" stroke="black" points="771,-40.8 771,-92.8 885,-92.8 885,-40.8 771,-40.8"/>
</g>
<g id="clust44" class="cluster">
<title>cluster_PatientDashboardModule_providers</title>
<polygon fill="none" stroke="black" points="16,-40.8 16,-92.8 763,-92.8 763,-40.8 16,-40.8"/>
</g>
<!-- AdministerMedDialogComponent -->
<g id="node1" class="node">
<title>AdministerMedDialogComponent</title>
<polygon fill="#ffffb3" stroke="black" points="8425.09,-84.8 8216.91,-84.8 8216.91,-48.8 8425.09,-48.8 8425.09,-84.8"/>
<text text-anchor="middle" x="8321" y="-62.6" font-family="Times,serif" font-size="14.00">AdministerMedDialogComponent</text>
</g>
<!-- PatientDashboardModule -->
<g id="node39" class="node">
<title>PatientDashboardModule</title>
<polygon fill="#8dd3c7" stroke="black" points="3958.58,-149.8 3955.58,-153.8 3934.58,-153.8 3931.58,-149.8 3799.42,-149.8 3799.42,-113.8 3958.58,-113.8 3958.58,-149.8"/>
<text text-anchor="middle" x="3879" y="-127.6" font-family="Times,serif" font-size="14.00">PatientDashboardModule</text>
</g>
<!-- AdministerMedDialogComponent&#45;&gt;PatientDashboardModule -->
<g id="edge1" class="edge">
<title>AdministerMedDialogComponent&#45;&gt;PatientDashboardModule</title>
<path fill="none" stroke="black" d="M8321,-85C8321,-109.16 8321,-148.8 8321,-148.8 8321,-148.8 3968.94,-148.8 3968.94,-148.8"/>
<polygon fill="black" stroke="black" points="3968.94,-145.3 3958.94,-148.8 3968.94,-152.3 3968.94,-145.3"/>
</g>
<!-- AdministrationScheduleComponent -->
<g id="node2" class="node">
<title>AdministrationScheduleComponent</title>
<polygon fill="#ffffb3" stroke="black" points="8198.92,-84.8 7981.08,-84.8 7981.08,-48.8 8198.92,-48.8 8198.92,-84.8"/>
<text text-anchor="middle" x="8090" y="-62.6" font-family="Times,serif" font-size="14.00">AdministrationScheduleComponent</text>
</g>
<!-- AdministrationScheduleComponent&#45;&gt;PatientDashboardModule -->
<g id="edge2" class="edge">
<title>AdministrationScheduleComponent&#45;&gt;PatientDashboardModule</title>
<path fill="none" stroke="black" d="M8090,-84.95C8090,-108.56 8090,-146.8 8090,-146.8 8090,-146.8 3968.9,-146.8 3968.9,-146.8"/>
<polygon fill="black" stroke="black" points="3968.9,-143.3 3958.9,-146.8 3968.9,-150.3 3968.9,-143.3"/>
</g>
<!-- AssessmentInfoComponent -->
<g id="node3" class="node">
<title>AssessmentInfoComponent</title>
<polygon fill="#ffffb3" stroke="black" points="7963.27,-84.8 7792.73,-84.8 7792.73,-48.8 7963.27,-48.8 7963.27,-84.8"/>
<text text-anchor="middle" x="7878" y="-62.6" font-family="Times,serif" font-size="14.00">AssessmentInfoComponent</text>
</g>
<!-- AssessmentInfoComponent&#45;&gt;PatientDashboardModule -->
<g id="edge3" class="edge">
<title>AssessmentInfoComponent&#45;&gt;PatientDashboardModule</title>
<path fill="none" stroke="black" d="M7878,-85.12C7878,-108.46 7878,-145.8 7878,-145.8 7878,-145.8 3968.88,-145.8 3968.88,-145.8"/>
<polygon fill="black" stroke="black" points="3968.88,-142.3 3958.88,-145.8 3968.88,-149.3 3968.88,-142.3"/>
</g>
<!-- AssessmentRowComponent -->
<g id="node4" class="node">
<title>AssessmentRowComponent</title>
<polygon fill="#ffffb3" stroke="black" points="7774.89,-84.8 7601.11,-84.8 7601.11,-48.8 7774.89,-48.8 7774.89,-84.8"/>
<text text-anchor="middle" x="7688" y="-62.6" font-family="Times,serif" font-size="14.00">AssessmentRowComponent</text>
</g>
<!-- AssessmentRowComponent&#45;&gt;PatientDashboardModule -->
<g id="edge4" class="edge">
<title>AssessmentRowComponent&#45;&gt;PatientDashboardModule</title>
<path fill="none" stroke="black" d="M7688,-85.05C7688,-107.82 7688,-143.8 7688,-143.8 7688,-143.8 3968.56,-143.8 3968.56,-143.8"/>
<polygon fill="black" stroke="black" points="3968.56,-140.3 3958.56,-143.8 3968.56,-147.3 3968.56,-140.3"/>
</g>
<!-- AssessmentsHistoryTabComponent -->
<g id="node5" class="node">
<title>AssessmentsHistoryTabComponent</title>
<polygon fill="#ffffb3" stroke="black" points="7583.16,-84.8 7366.84,-84.8 7366.84,-48.8 7583.16,-48.8 7583.16,-84.8"/>
<text text-anchor="middle" x="7475" y="-62.6" font-family="Times,serif" font-size="14.00">AssessmentsHistoryTabComponent</text>
</g>
<!-- AssessmentsHistoryTabComponent&#45;&gt;PatientDashboardModule -->
<g id="edge5" class="edge">
<title>AssessmentsHistoryTabComponent&#45;&gt;PatientDashboardModule</title>
<path fill="none" stroke="black" d="M7475,-84.96C7475,-107.15 7475,-141.8 7475,-141.8 7475,-141.8 3968.72,-141.8 3968.72,-141.8"/>
<polygon fill="black" stroke="black" points="3968.72,-138.3 3958.72,-141.8 3968.72,-145.3 3968.72,-138.3"/>
</g>
<!-- AssessmentsTabComponent -->
<g id="node6" class="node">
<title>AssessmentsTabComponent</title>
<polygon fill="#ffffb3" stroke="black" points="7348.16,-84.8 7173.84,-84.8 7173.84,-48.8 7348.16,-48.8 7348.16,-84.8"/>
<text text-anchor="middle" x="7261" y="-62.6" font-family="Times,serif" font-size="14.00">AssessmentsTabComponent</text>
</g>
<!-- AssessmentsTabComponent&#45;&gt;PatientDashboardModule -->
<g id="edge6" class="edge">
<title>AssessmentsTabComponent&#45;&gt;PatientDashboardModule</title>
<path fill="none" stroke="black" d="M7261,-85.09C7261,-107.01 7261,-140.8 7261,-140.8 7261,-140.8 3968.85,-140.8 3968.85,-140.8"/>
<polygon fill="black" stroke="black" points="3968.85,-137.3 3958.85,-140.8 3968.85,-144.3 3968.85,-137.3"/>
</g>
<!-- CardiovascularFormComponent -->
<g id="node7" class="node">
<title>CardiovascularFormComponent</title>
<polygon fill="#ffffb3" stroke="black" points="7155.41,-84.8 6958.59,-84.8 6958.59,-48.8 7155.41,-48.8 7155.41,-84.8"/>
<text text-anchor="middle" x="7057" y="-62.6" font-family="Times,serif" font-size="14.00">CardiovascularFormComponent</text>
</g>
<!-- CardiovascularFormComponent&#45;&gt;PatientDashboardModule -->
<g id="edge7" class="edge">
<title>CardiovascularFormComponent&#45;&gt;PatientDashboardModule</title>
<path fill="none" stroke="black" d="M7057,-84.97C7057,-106.3 7057,-138.8 7057,-138.8 7057,-138.8 3968.75,-138.8 3968.75,-138.8"/>
<polygon fill="black" stroke="black" points="3968.75,-135.3 3958.75,-138.8 3968.75,-142.3 3968.75,-135.3"/>
</g>
<!-- CardiovascularInfoComponent -->
<g id="node8" class="node">
<title>CardiovascularInfoComponent</title>
<polygon fill="#ffffb3" stroke="black" points="6940.9,-84.8 6751.1,-84.8 6751.1,-48.8 6940.9,-48.8 6940.9,-84.8"/>
<text text-anchor="middle" x="6846" y="-62.6" font-family="Times,serif" font-size="14.00">CardiovascularInfoComponent</text>
</g>
<!-- CardiovascularInfoComponent&#45;&gt;PatientDashboardModule -->
<g id="edge8" class="edge">
<title>CardiovascularInfoComponent&#45;&gt;PatientDashboardModule</title>
<path fill="none" stroke="black" d="M6846,-84.83C6846,-105.57 6846,-136.8 6846,-136.8 6846,-136.8 3968.74,-136.8 3968.74,-136.8"/>
<polygon fill="black" stroke="black" points="3968.74,-133.3 3958.74,-136.8 3968.74,-140.3 3968.74,-133.3"/>
</g>
<!-- GastrointestinalFormComponent -->
<g id="node9" class="node">
<title>GastrointestinalFormComponent</title>
<polygon fill="#ffffb3" stroke="black" points="6733.32,-84.8 6532.68,-84.8 6532.68,-48.8 6733.32,-48.8 6733.32,-84.8"/>
<text text-anchor="middle" x="6633" y="-62.6" font-family="Times,serif" font-size="14.00">GastrointestinalFormComponent</text>
</g>
<!-- GastrointestinalFormComponent&#45;&gt;PatientDashboardModule -->
<g id="edge9" class="edge">
<title>GastrointestinalFormComponent&#45;&gt;PatientDashboardModule</title>
<path fill="none" stroke="black" d="M6633,-84.93C6633,-105.37 6633,-135.8 6633,-135.8 6633,-135.8 3968.82,-135.8 3968.82,-135.8"/>
<polygon fill="black" stroke="black" points="3968.82,-132.3 3958.82,-135.8 3968.82,-139.3 3968.82,-132.3"/>
</g>
<!-- GastrointestinalInfoComponent -->
<g id="node10" class="node">
<title>GastrointestinalInfoComponent</title>
<polygon fill="#ffffb3" stroke="black" points="6514.8,-84.8 6321.2,-84.8 6321.2,-48.8 6514.8,-48.8 6514.8,-84.8"/>
<text text-anchor="middle" x="6418" y="-62.6" font-family="Times,serif" font-size="14.00">GastrointestinalInfoComponent</text>
</g>
<!-- GastrointestinalInfoComponent&#45;&gt;PatientDashboardModule -->
<g id="edge10" class="edge">
<title>GastrointestinalInfoComponent&#45;&gt;PatientDashboardModule</title>
<path fill="none" stroke="black" d="M6418,-85.11C6418,-104.95 6418,-133.8 6418,-133.8 6418,-133.8 3968.83,-133.8 3968.83,-133.8"/>
<polygon fill="black" stroke="black" points="3968.83,-130.3 3958.83,-133.8 3968.83,-137.3 3968.83,-130.3"/>
</g>
<!-- GenitourinaryFormComponent -->
<g id="node11" class="node">
<title>GenitourinaryFormComponent</title>
<polygon fill="#ffffb3" stroke="black" points="6303.2,-84.8 6112.8,-84.8 6112.8,-48.8 6303.2,-48.8 6303.2,-84.8"/>
<text text-anchor="middle" x="6208" y="-62.6" font-family="Times,serif" font-size="14.00">GenitourinaryFormComponent</text>
</g>
<!-- GenitourinaryFormComponent&#45;&gt;PatientDashboardModule -->
<g id="edge11" class="edge">
<title>GenitourinaryFormComponent&#45;&gt;PatientDashboardModule</title>
<path fill="none" stroke="black" d="M6208,-84.91C6208,-104.14 6208,-131.8 6208,-131.8 6208,-131.8 3968.83,-131.8 3968.83,-131.8"/>
<polygon fill="black" stroke="black" points="3968.83,-128.3 3958.83,-131.8 3968.83,-135.3 3968.83,-128.3"/>
</g>
<!-- GenitourinaryInfoComponent -->
<g id="node12" class="node">
<title>GenitourinaryInfoComponent</title>
<polygon fill="#ffffb3" stroke="black" points="6094.69,-84.8 5911.31,-84.8 5911.31,-48.8 6094.69,-48.8 6094.69,-84.8"/>
<text text-anchor="middle" x="6003" y="-62.6" font-family="Times,serif" font-size="14.00">GenitourinaryInfoComponent</text>
</g>
<!-- GenitourinaryInfoComponent&#45;&gt;PatientDashboardModule -->
<g id="edge12" class="edge">
<title>GenitourinaryInfoComponent&#45;&gt;PatientDashboardModule</title>
<path fill="none" stroke="black" d="M6003,-84.97C6003,-103.89 6003,-130.8 6003,-130.8 6003,-130.8 3968.71,-130.8 3968.71,-130.8"/>
<polygon fill="black" stroke="black" points="3968.71,-127.3 3958.71,-130.8 3968.71,-134.3 3968.71,-127.3"/>
</g>
<!-- HistoryAndPhysicalTabComponent -->
<g id="node13" class="node">
<title>HistoryAndPhysicalTabComponent</title>
<polygon fill="#ffffb3" stroke="black" points="5893.15,-84.8 5676.85,-84.8 5676.85,-48.8 5893.15,-48.8 5893.15,-84.8"/>
<text text-anchor="middle" x="5785" y="-62.6" font-family="Times,serif" font-size="14.00">HistoryAndPhysicalTabComponent</text>
</g>
<!-- HistoryAndPhysicalTabComponent&#45;&gt;PatientDashboardModule -->
<g id="edge13" class="edge">
<title>HistoryAndPhysicalTabComponent&#45;&gt;PatientDashboardModule</title>
<path fill="none" stroke="black" d="M5785,-85.07C5785,-103.36 5785,-128.8 5785,-128.8 5785,-128.8 3968.77,-128.8 3968.77,-128.8"/>
<polygon fill="black" stroke="black" points="3968.77,-125.3 3958.77,-128.8 3968.77,-132.3 3968.77,-125.3"/>
</g>
<!-- IntegumentaryFormComponent -->
<g id="node14" class="node">
<title>IntegumentaryFormComponent</title>
<polygon fill="#ffffb3" stroke="black" points="5658.8,-84.8 5465.2,-84.8 5465.2,-48.8 5658.8,-48.8 5658.8,-84.8"/>
<text text-anchor="middle" x="5562" y="-62.6" font-family="Times,serif" font-size="14.00">IntegumentaryFormComponent</text>
</g>
<!-- IntegumentaryFormComponent&#45;&gt;PatientDashboardModule -->
<g id="edge14" class="edge">
<title>IntegumentaryFormComponent&#45;&gt;PatientDashboardModule</title>
<path fill="none" stroke="black" d="M5562,-85.1C5562,-103.07 5562,-127.8 5562,-127.8 5562,-127.8 3968.76,-127.8 3968.76,-127.8"/>
<polygon fill="black" stroke="black" points="3968.76,-124.3 3958.76,-127.8 3968.76,-131.3 3968.76,-124.3"/>
</g>
<!-- IntegumentaryInfoComponent -->
<g id="node15" class="node">
<title>IntegumentaryInfoComponent</title>
<polygon fill="#ffffb3" stroke="black" points="5447.29,-84.8 5260.71,-84.8 5260.71,-48.8 5447.29,-48.8 5447.29,-84.8"/>
<text text-anchor="middle" x="5354" y="-62.6" font-family="Times,serif" font-size="14.00">IntegumentaryInfoComponent</text>
</g>
<!-- IntegumentaryInfoComponent&#45;&gt;PatientDashboardModule -->
<g id="edge15" class="edge">
<title>IntegumentaryInfoComponent&#45;&gt;PatientDashboardModule</title>
<path fill="none" stroke="black" d="M5354,-84.82C5354,-102.17 5354,-125.8 5354,-125.8 5354,-125.8 3968.56,-125.8 3968.56,-125.8"/>
<polygon fill="black" stroke="black" points="3968.56,-122.3 3958.56,-125.8 3968.56,-129.3 3968.56,-122.3"/>
</g>
<!-- MarTabComponent -->
<g id="node16" class="node">
<title>MarTabComponent</title>
<polygon fill="#ffffb3" stroke="black" points="5243.42,-84.8 5116.58,-84.8 5116.58,-48.8 5243.42,-48.8 5243.42,-84.8"/>
<text text-anchor="middle" x="5180" y="-62.6" font-family="Times,serif" font-size="14.00">MarTabComponent</text>
</g>
<!-- MarTabComponent&#45;&gt;PatientDashboardModule -->
<g id="edge16" class="edge">
<title>MarTabComponent&#45;&gt;PatientDashboardModule</title>
<path fill="none" stroke="black" d="M5180,-84.84C5180,-101.53 5180,-123.8 5180,-123.8 5180,-123.8 3968.91,-123.8 3968.91,-123.8"/>
<polygon fill="black" stroke="black" points="3968.91,-120.3 3958.91,-123.8 3968.91,-127.3 3968.91,-120.3"/>
</g>
<!-- MedicationScheduleComponent -->
<g id="node17" class="node">
<title>MedicationScheduleComponent</title>
<polygon fill="#ffffb3" stroke="black" points="5099.41,-84.8 4902.59,-84.8 4902.59,-48.8 5099.41,-48.8 5099.41,-84.8"/>
<text text-anchor="middle" x="5001" y="-62.6" font-family="Times,serif" font-size="14.00">MedicationScheduleComponent</text>
</g>
<!-- MedicationScheduleComponent&#45;&gt;PatientDashboardModule -->
<g id="edge17" class="edge">
<title>MedicationScheduleComponent&#45;&gt;PatientDashboardModule</title>
<path fill="none" stroke="black" d="M5001,-84.83C5001,-101.2 5001,-122.8 5001,-122.8 5001,-122.8 3968.79,-122.8 3968.79,-122.8"/>
<polygon fill="black" stroke="black" points="3968.79,-119.3 3958.79,-122.8 3968.79,-126.3 3968.79,-119.3"/>
</g>
<!-- MusculoskeletalFormComponent -->
<g id="node18" class="node">
<title>MusculoskeletalFormComponent</title>
<polygon fill="#ffffb3" stroke="black" points="4884.93,-84.8 4681.07,-84.8 4681.07,-48.8 4884.93,-48.8 4884.93,-84.8"/>
<text text-anchor="middle" x="4783" y="-62.6" font-family="Times,serif" font-size="14.00">MusculoskeletalFormComponent</text>
</g>
<!-- MusculoskeletalFormComponent&#45;&gt;PatientDashboardModule -->
<g id="edge18" class="edge">
<title>MusculoskeletalFormComponent&#45;&gt;PatientDashboardModule</title>
<path fill="none" stroke="black" d="M4783,-85.08C4783,-100.75 4783,-120.8 4783,-120.8 4783,-120.8 3968.83,-120.8 3968.83,-120.8"/>
<polygon fill="black" stroke="black" points="3968.83,-117.3 3958.83,-120.8 3968.83,-124.3 3968.83,-117.3"/>
</g>
<!-- MusculoskeletalInfoComponent -->
<g id="node19" class="node">
<title>MusculoskeletalInfoComponent</title>
<polygon fill="#ffffb3" stroke="black" points="4663.41,-84.8 4466.59,-84.8 4466.59,-48.8 4663.41,-48.8 4663.41,-84.8"/>
<text text-anchor="middle" x="4565" y="-62.6" font-family="Times,serif" font-size="14.00">MusculoskeletalInfoComponent</text>
</g>
<!-- MusculoskeletalInfoComponent&#45;&gt;PatientDashboardModule -->
<g id="edge19" class="edge">
<title>MusculoskeletalInfoComponent&#45;&gt;PatientDashboardModule</title>
<path fill="none" stroke="black" d="M4565,-84.99C4565,-99.98 4565,-118.8 4565,-118.8 4565,-118.8 3968.7,-118.8 3968.7,-118.8"/>
<polygon fill="black" stroke="black" points="3968.7,-115.3 3958.7,-118.8 3968.7,-122.3 3968.7,-115.3"/>
</g>
<!-- NeurologicalFormComponent -->
<g id="node20" class="node">
<title>NeurologicalFormComponent</title>
<polygon fill="#ffffb3" stroke="black" points="4448.25,-84.8 4263.75,-84.8 4263.75,-48.8 4448.25,-48.8 4448.25,-84.8"/>
<text text-anchor="middle" x="4356" y="-62.6" font-family="Times,serif" font-size="14.00">NeurologicalFormComponent</text>
</g>
<!-- NeurologicalFormComponent&#45;&gt;PatientDashboardModule -->
<g id="edge20" class="edge">
<title>NeurologicalFormComponent&#45;&gt;PatientDashboardModule</title>
<path fill="none" stroke="black" d="M4356,-84.92C4356,-99.58 4356,-117.8 4356,-117.8 4356,-117.8 3968.57,-117.8 3968.57,-117.8"/>
<polygon fill="black" stroke="black" points="3968.57,-114.3 3958.57,-117.8 3968.57,-121.3 3968.57,-114.3"/>
</g>
<!-- NeurologicalInfoComponent -->
<g id="node21" class="node">
<title>NeurologicalInfoComponent</title>
<polygon fill="#ffffb3" stroke="black" points="4245.74,-84.8 4068.26,-84.8 4068.26,-48.8 4245.74,-48.8 4245.74,-84.8"/>
<text text-anchor="middle" x="4157" y="-62.6" font-family="Times,serif" font-size="14.00">NeurologicalInfoComponent</text>
</g>
<!-- NeurologicalInfoComponent&#45;&gt;PatientDashboardModule -->
<g id="edge21" class="edge">
<title>NeurologicalInfoComponent&#45;&gt;PatientDashboardModule</title>
<path fill="none" stroke="black" d="M4157,-85.05C4157,-98.98 4157,-115.8 4157,-115.8 4157,-115.8 3968.66,-115.8 3968.66,-115.8"/>
<polygon fill="black" stroke="black" points="3968.66,-112.3 3958.66,-115.8 3968.66,-119.3 3968.66,-112.3"/>
</g>
<!-- NoteEditDialogComponent -->
<g id="node22" class="node">
<title>NoteEditDialogComponent</title>
<polygon fill="#ffffb3" stroke="black" points="4049.98,-84.8 3880.02,-84.8 3880.02,-48.8 4049.98,-48.8 4049.98,-84.8"/>
<text text-anchor="middle" x="3965" y="-62.6" font-family="Times,serif" font-size="14.00">NoteEditDialogComponent</text>
</g>
<!-- NoteEditDialogComponent&#45;&gt;PatientDashboardModule -->
<g id="edge22" class="edge">
<title>NoteEditDialogComponent&#45;&gt;PatientDashboardModule</title>
<path fill="none" stroke="black" d="M3919.28,-84.91C3919.28,-84.91 3919.28,-103.79 3919.28,-103.79"/>
<polygon fill="black" stroke="black" points="3915.78,-103.79 3919.28,-113.79 3922.78,-103.79 3915.78,-103.79"/>
</g>
<!-- NoteFormComponent -->
<g id="node23" class="node">
<title>NoteFormComponent</title>
<polygon fill="#ffffb3" stroke="black" points="3862.38,-84.8 3723.62,-84.8 3723.62,-48.8 3862.38,-48.8 3862.38,-84.8"/>
<text text-anchor="middle" x="3793" y="-62.6" font-family="Times,serif" font-size="14.00">NoteFormComponent</text>
</g>
<!-- NoteFormComponent&#45;&gt;PatientDashboardModule -->
<g id="edge23" class="edge">
<title>NoteFormComponent&#45;&gt;PatientDashboardModule</title>
<path fill="none" stroke="black" d="M3830.95,-84.91C3830.95,-84.91 3830.95,-103.79 3830.95,-103.79"/>
<polygon fill="black" stroke="black" points="3827.45,-103.79 3830.95,-113.79 3834.45,-103.79 3827.45,-103.79"/>
</g>
<!-- OrderEditDialogComponent -->
<g id="node24" class="node">
<title>OrderEditDialogComponent</title>
<polygon fill="#ffffb3" stroke="black" points="3705.91,-84.8 3530.09,-84.8 3530.09,-48.8 3705.91,-48.8 3705.91,-84.8"/>
<text text-anchor="middle" x="3618" y="-62.6" font-family="Times,serif" font-size="14.00">OrderEditDialogComponent</text>
</g>
<!-- OrderEditDialogComponent&#45;&gt;PatientDashboardModule -->
<g id="edge24" class="edge">
<title>OrderEditDialogComponent&#45;&gt;PatientDashboardModule</title>
<path fill="none" stroke="black" d="M3618,-85.05C3618,-98.98 3618,-115.8 3618,-115.8 3618,-115.8 3789.27,-115.8 3789.27,-115.8"/>
<polygon fill="black" stroke="black" points="3789.27,-119.3 3799.27,-115.8 3789.27,-112.3 3789.27,-119.3"/>
</g>
<!-- OrderFormComponent -->
<g id="node25" class="node">
<title>OrderFormComponent</title>
<polygon fill="#ffffb3" stroke="black" points="3512.32,-84.8 3367.68,-84.8 3367.68,-48.8 3512.32,-48.8 3512.32,-84.8"/>
<text text-anchor="middle" x="3440" y="-62.6" font-family="Times,serif" font-size="14.00">OrderFormComponent</text>
</g>
<!-- OrderFormComponent&#45;&gt;PatientDashboardModule -->
<g id="edge25" class="edge">
<title>OrderFormComponent&#45;&gt;PatientDashboardModule</title>
<path fill="none" stroke="black" d="M3440,-84.92C3440,-99.58 3440,-117.8 3440,-117.8 3440,-117.8 3789.25,-117.8 3789.25,-117.8"/>
<polygon fill="black" stroke="black" points="3789.25,-121.3 3799.25,-117.8 3789.25,-114.3 3789.25,-121.3"/>
</g>
<!-- PatientDashboardComponent -->
<g id="node26" class="node">
<title>PatientDashboardComponent</title>
<polygon fill="#ffffb3" stroke="black" points="3349.36,-84.8 3168.64,-84.8 3168.64,-48.8 3349.36,-48.8 3349.36,-84.8"/>
<text text-anchor="middle" x="3259" y="-62.6" font-family="Times,serif" font-size="14.00">PatientDashboardComponent</text>
</g>
<!-- PatientDashboardComponent&#45;&gt;PatientDashboardModule -->
<g id="edge26" class="edge">
<title>PatientDashboardComponent&#45;&gt;PatientDashboardModule</title>
<path fill="none" stroke="black" d="M3259,-84.99C3259,-99.98 3259,-118.8 3259,-118.8 3259,-118.8 3789.22,-118.8 3789.22,-118.8"/>
<polygon fill="black" stroke="black" points="3789.22,-122.3 3799.22,-118.8 3789.22,-115.3 3789.22,-122.3"/>
</g>
<!-- PatientDashboardTabComponent -->
<g id="node27" class="node">
<title>PatientDashboardTabComponent</title>
<polygon fill="#ffffb3" stroke="black" points="3150.13,-84.8 2947.87,-84.8 2947.87,-48.8 3150.13,-48.8 3150.13,-84.8"/>
<text text-anchor="middle" x="3049" y="-62.6" font-family="Times,serif" font-size="14.00">PatientDashboardTabComponent</text>
</g>
<!-- PatientDashboardTabComponent&#45;&gt;PatientDashboardModule -->
<g id="edge27" class="edge">
<title>PatientDashboardTabComponent&#45;&gt;PatientDashboardModule</title>
<path fill="none" stroke="black" d="M3049,-85.08C3049,-100.75 3049,-120.8 3049,-120.8 3049,-120.8 3789.42,-120.8 3789.42,-120.8"/>
<polygon fill="black" stroke="black" points="3789.42,-124.3 3799.42,-120.8 3789.42,-117.3 3789.42,-124.3"/>
</g>
<!-- PrnScheduleComponent -->
<g id="node28" class="node">
<title>PrnScheduleComponent</title>
<polygon fill="#ffffb3" stroke="black" points="2930.1,-84.8 2777.9,-84.8 2777.9,-48.8 2930.1,-48.8 2930.1,-84.8"/>
<text text-anchor="middle" x="2854" y="-62.6" font-family="Times,serif" font-size="14.00">PrnScheduleComponent</text>
</g>
<!-- PrnScheduleComponent&#45;&gt;PatientDashboardModule -->
<g id="edge28" class="edge">
<title>PrnScheduleComponent&#45;&gt;PatientDashboardModule</title>
<path fill="none" stroke="black" d="M2854,-84.83C2854,-101.2 2854,-122.8 2854,-122.8 2854,-122.8 3789.42,-122.8 3789.42,-122.8"/>
<polygon fill="black" stroke="black" points="3789.42,-126.3 3799.42,-122.8 3789.42,-119.3 3789.42,-126.3"/>
</g>
<!-- ProgressNotesTabComponent -->
<g id="node29" class="node">
<title>ProgressNotesTabComponent</title>
<polygon fill="#ffffb3" stroke="black" points="2759.98,-84.8 2576.02,-84.8 2576.02,-48.8 2759.98,-48.8 2759.98,-84.8"/>
<text text-anchor="middle" x="2668" y="-62.6" font-family="Times,serif" font-size="14.00">ProgressNotesTabComponent</text>
</g>
<!-- ProgressNotesTabComponent&#45;&gt;PatientDashboardModule -->
<g id="edge29" class="edge">
<title>ProgressNotesTabComponent&#45;&gt;PatientDashboardModule</title>
<path fill="none" stroke="black" d="M2668,-84.84C2668,-101.53 2668,-123.8 2668,-123.8 2668,-123.8 3789.07,-123.8 3789.07,-123.8"/>
<polygon fill="black" stroke="black" points="3789.07,-127.3 3799.07,-123.8 3789.07,-120.3 3789.07,-127.3"/>
</g>
<!-- ProviderChartsTabComponent -->
<g id="node30" class="node">
<title>ProviderChartsTabComponent</title>
<polygon fill="#ffffb3" stroke="black" points="2557.86,-84.8 2370.14,-84.8 2370.14,-48.8 2557.86,-48.8 2557.86,-84.8"/>
<text text-anchor="middle" x="2464" y="-62.6" font-family="Times,serif" font-size="14.00">ProviderChartsTabComponent</text>
</g>
<!-- ProviderChartsTabComponent&#45;&gt;PatientDashboardModule -->
<g id="edge30" class="edge">
<title>ProviderChartsTabComponent&#45;&gt;PatientDashboardModule</title>
<path fill="none" stroke="black" d="M2464,-84.82C2464,-102.17 2464,-125.8 2464,-125.8 2464,-125.8 3789.38,-125.8 3789.38,-125.8"/>
<polygon fill="black" stroke="black" points="3789.38,-129.3 3799.38,-125.8 3789.38,-122.3 3789.38,-129.3"/>
</g>
<!-- ProviderOrdersTabComponent -->
<g id="node31" class="node">
<title>ProviderOrdersTabComponent</title>
<polygon fill="#ffffb3" stroke="black" points="2351.91,-84.8 2162.09,-84.8 2162.09,-48.8 2351.91,-48.8 2351.91,-84.8"/>
<text text-anchor="middle" x="2257" y="-62.6" font-family="Times,serif" font-size="14.00">ProviderOrdersTabComponent</text>
</g>
<!-- ProviderOrdersTabComponent&#45;&gt;PatientDashboardModule -->
<g id="edge31" class="edge">
<title>ProviderOrdersTabComponent&#45;&gt;PatientDashboardModule</title>
<path fill="none" stroke="black" d="M2257,-85.1C2257,-103.07 2257,-127.8 2257,-127.8 2257,-127.8 3789.39,-127.8 3789.39,-127.8"/>
<polygon fill="black" stroke="black" points="3789.39,-131.3 3799.39,-127.8 3789.39,-124.3 3789.39,-131.3"/>
</g>
<!-- PsychosocialFormComponent -->
<g id="node32" class="node">
<title>PsychosocialFormComponent</title>
<polygon fill="#ffffb3" stroke="black" points="2144.27,-84.8 1959.73,-84.8 1959.73,-48.8 2144.27,-48.8 2144.27,-84.8"/>
<text text-anchor="middle" x="2052" y="-62.6" font-family="Times,serif" font-size="14.00">PsychosocialFormComponent</text>
</g>
<!-- PsychosocialFormComponent&#45;&gt;PatientDashboardModule -->
<g id="edge32" class="edge">
<title>PsychosocialFormComponent&#45;&gt;PatientDashboardModule</title>
<path fill="none" stroke="black" d="M2052,-85.07C2052,-103.36 2052,-128.8 2052,-128.8 2052,-128.8 3789.32,-128.8 3789.32,-128.8"/>
<polygon fill="black" stroke="black" points="3789.32,-132.3 3799.32,-128.8 3789.32,-125.3 3789.32,-132.3"/>
</g>
<!-- PsychosocialInfoComponent -->
<g id="node33" class="node">
<title>PsychosocialInfoComponent</title>
<polygon fill="#ffffb3" stroke="black" points="1941.76,-84.8 1764.24,-84.8 1764.24,-48.8 1941.76,-48.8 1941.76,-84.8"/>
<text text-anchor="middle" x="1853" y="-62.6" font-family="Times,serif" font-size="14.00">PsychosocialInfoComponent</text>
</g>
<!-- PsychosocialInfoComponent&#45;&gt;PatientDashboardModule -->
<g id="edge33" class="edge">
<title>PsychosocialInfoComponent&#45;&gt;PatientDashboardModule</title>
<path fill="none" stroke="black" d="M1853,-84.97C1853,-103.89 1853,-130.8 1853,-130.8 1853,-130.8 3789.27,-130.8 3789.27,-130.8"/>
<polygon fill="black" stroke="black" points="3789.27,-134.3 3799.27,-130.8 3789.27,-127.3 3789.27,-134.3"/>
</g>
<!-- RespiratoryFormComponent -->
<g id="node34" class="node">
<title>RespiratoryFormComponent</title>
<polygon fill="#ffffb3" stroke="black" points="1746.49,-84.8 1569.51,-84.8 1569.51,-48.8 1746.49,-48.8 1746.49,-84.8"/>
<text text-anchor="middle" x="1658" y="-62.6" font-family="Times,serif" font-size="14.00">RespiratoryFormComponent</text>
</g>
<!-- RespiratoryFormComponent&#45;&gt;PatientDashboardModule -->
<g id="edge34" class="edge">
<title>RespiratoryFormComponent&#45;&gt;PatientDashboardModule</title>
<path fill="none" stroke="black" d="M1658,-84.91C1658,-104.14 1658,-131.8 1658,-131.8 1658,-131.8 3789.3,-131.8 3789.3,-131.8"/>
<polygon fill="black" stroke="black" points="3789.3,-135.3 3799.3,-131.8 3789.3,-128.3 3789.3,-135.3"/>
</g>
<!-- RespiratoryInfoComponent -->
<g id="node35" class="node">
<title>RespiratoryInfoComponent</title>
<polygon fill="#ffffb3" stroke="black" points="1551.97,-84.8 1382.03,-84.8 1382.03,-48.8 1551.97,-48.8 1551.97,-84.8"/>
<text text-anchor="middle" x="1467" y="-62.6" font-family="Times,serif" font-size="14.00">RespiratoryInfoComponent</text>
</g>
<!-- RespiratoryInfoComponent&#45;&gt;PatientDashboardModule -->
<g id="edge35" class="edge">
<title>RespiratoryInfoComponent&#45;&gt;PatientDashboardModule</title>
<path fill="none" stroke="black" d="M1467,-85.11C1467,-104.95 1467,-133.8 1467,-133.8 1467,-133.8 3789.44,-133.8 3789.44,-133.8"/>
<polygon fill="black" stroke="black" points="3789.44,-137.3 3799.44,-133.8 3789.44,-130.3 3789.44,-137.3"/>
</g>
<!-- VitalsChartComponent -->
<g id="node36" class="node">
<title>VitalsChartComponent</title>
<polygon fill="#ffffb3" stroke="black" points="1363.88,-84.8 1218.12,-84.8 1218.12,-48.8 1363.88,-48.8 1363.88,-84.8"/>
<text text-anchor="middle" x="1291" y="-62.6" font-family="Times,serif" font-size="14.00">VitalsChartComponent</text>
</g>
<!-- VitalsChartComponent&#45;&gt;PatientDashboardModule -->
<g id="edge36" class="edge">
<title>VitalsChartComponent&#45;&gt;PatientDashboardModule</title>
<path fill="none" stroke="black" d="M1291,-84.93C1291,-105.37 1291,-135.8 1291,-135.8 1291,-135.8 3789.42,-135.8 3789.42,-135.8"/>
<polygon fill="black" stroke="black" points="3789.42,-139.3 3799.42,-135.8 3789.42,-132.3 3789.42,-139.3"/>
</g>
<!-- VitalsFormComponent -->
<g id="node37" class="node">
<title>VitalsFormComponent</title>
<polygon fill="#ffffb3" stroke="black" points="1200.61,-84.8 1055.39,-84.8 1055.39,-48.8 1200.61,-48.8 1200.61,-84.8"/>
<text text-anchor="middle" x="1128" y="-62.6" font-family="Times,serif" font-size="14.00">VitalsFormComponent</text>
</g>
<!-- VitalsFormComponent&#45;&gt;PatientDashboardModule -->
<g id="edge37" class="edge">
<title>VitalsFormComponent&#45;&gt;PatientDashboardModule</title>
<path fill="none" stroke="black" d="M1128,-84.83C1128,-105.57 1128,-136.8 1128,-136.8 1128,-136.8 3789.27,-136.8 3789.27,-136.8"/>
<polygon fill="black" stroke="black" points="3789.27,-140.3 3799.27,-136.8 3789.27,-133.3 3789.27,-140.3"/>
</g>
<!-- VitalsTabComponent -->
<g id="node38" class="node">
<title>VitalsTabComponent</title>
<polygon fill="#ffffb3" stroke="black" points="1037.04,-84.8 900.96,-84.8 900.96,-48.8 1037.04,-48.8 1037.04,-84.8"/>
<text text-anchor="middle" x="969" y="-62.6" font-family="Times,serif" font-size="14.00">VitalsTabComponent</text>
</g>
<!-- VitalsTabComponent&#45;&gt;PatientDashboardModule -->
<g id="edge38" class="edge">
<title>VitalsTabComponent&#45;&gt;PatientDashboardModule</title>
<path fill="none" stroke="black" d="M969,-84.97C969,-106.3 969,-138.8 969,-138.8 969,-138.8 3789.28,-138.8 3789.28,-138.8"/>
<polygon fill="black" stroke="black" points="3789.28,-142.3 3799.28,-138.8 3789.28,-135.3 3789.28,-142.3"/>
</g>
<!-- SharedModule -->
<g id="node40" class="node">
<title>SharedModule</title>
<polygon fill="#8dd3c7" stroke="black" points="877.43,-84.8 874.43,-88.8 853.43,-88.8 850.43,-84.8 778.57,-84.8 778.57,-48.8 877.43,-48.8 877.43,-84.8"/>
<text text-anchor="middle" x="828" y="-62.6" font-family="Times,serif" font-size="14.00">SharedModule</text>
</g>
<!-- SharedModule&#45;&gt;PatientDashboardModule -->
<g id="edge39" class="edge">
<title>SharedModule&#45;&gt;PatientDashboardModule</title>
<path fill="none" stroke="black" d="M828,-85.09C828,-107.01 828,-140.8 828,-140.8 828,-140.8 3789.35,-140.8 3789.35,-140.8"/>
<polygon fill="black" stroke="black" points="3789.35,-144.3 3799.35,-140.8 3789.35,-137.3 3789.35,-144.3"/>
</g>
<!-- AuthService -->
<g id="node41" class="node">
<title>AuthService</title>
<ellipse fill="#fdb462" stroke="black" cx="696" cy="-66.8" rx="59.11" ry="18"/>
<text text-anchor="middle" x="696" y="-62.6" font-family="Times,serif" font-size="14.00">AuthService</text>
</g>
<!-- AuthService&#45;&gt;PatientDashboardModule -->
<g id="edge40" class="edge">
<title>AuthService&#45;&gt;PatientDashboardModule</title>
<path fill="none" stroke="black" d="M696,-84.96C696,-107.15 696,-141.8 696,-141.8 696,-141.8 3789.13,-141.8 3789.13,-141.8"/>
<polygon fill="black" stroke="black" points="3789.13,-145.3 3799.13,-141.8 3789.13,-138.3 3789.13,-145.3"/>
</g>
<!-- MedicationService -->
<g id="node42" class="node">
<title>MedicationService</title>
<ellipse fill="#fdb462" stroke="black" cx="535" cy="-66.8" rx="83.95" ry="18"/>
<text text-anchor="middle" x="535" y="-62.6" font-family="Times,serif" font-size="14.00">MedicationService</text>
</g>
<!-- MedicationService&#45;&gt;PatientDashboardModule -->
<g id="edge41" class="edge">
<title>MedicationService&#45;&gt;PatientDashboardModule</title>
<path fill="none" stroke="black" d="M535,-85.05C535,-107.82 535,-143.8 535,-143.8 535,-143.8 3789.23,-143.8 3789.23,-143.8"/>
<polygon fill="black" stroke="black" points="3789.23,-147.3 3799.23,-143.8 3789.23,-140.3 3789.23,-147.3"/>
</g>
<!-- PatientService -->
<g id="node43" class="node">
<title>PatientService</title>
<ellipse fill="#fdb462" stroke="black" cx="366" cy="-66.8" rx="66.63" ry="18"/>
<text text-anchor="middle" x="366" y="-62.6" font-family="Times,serif" font-size="14.00">PatientService</text>
</g>
<!-- PatientService&#45;&gt;PatientDashboardModule -->
<g id="edge42" class="edge">
<title>PatientService&#45;&gt;PatientDashboardModule</title>
<path fill="none" stroke="black" d="M366,-85.12C366,-108.46 366,-145.8 366,-145.8 366,-145.8 3789.45,-145.8 3789.45,-145.8"/>
<polygon fill="black" stroke="black" points="3789.45,-149.3 3799.45,-145.8 3789.45,-142.3 3789.45,-149.3"/>
</g>
<!-- ToastService -->
<g id="node44" class="node">
<title>ToastService</title>
<ellipse fill="#fdb462" stroke="black" cx="220" cy="-66.8" rx="61.4" ry="18"/>
<text text-anchor="middle" x="220" y="-62.6" font-family="Times,serif" font-size="14.00">ToastService</text>
</g>
<!-- ToastService&#45;&gt;PatientDashboardModule -->
<g id="edge43" class="edge">
<title>ToastService&#45;&gt;PatientDashboardModule</title>
<path fill="none" stroke="black" d="M220,-84.95C220,-108.56 220,-146.8 220,-146.8 220,-146.8 3789.17,-146.8 3789.17,-146.8"/>
<polygon fill="black" stroke="black" points="3789.17,-150.3 3799.17,-146.8 3789.17,-143.3 3789.17,-150.3"/>
</g>
<!-- UserService -->
<g id="node45" class="node">
<title>UserService</title>
<ellipse fill="#fdb462" stroke="black" cx="82" cy="-66.8" rx="58.46" ry="18"/>
<text text-anchor="middle" x="82" y="-62.6" font-family="Times,serif" font-size="14.00">UserService</text>
</g>
<!-- UserService&#45;&gt;PatientDashboardModule -->
<g id="edge44" class="edge">
<title>UserService&#45;&gt;PatientDashboardModule</title>
<path fill="none" stroke="black" d="M82,-85C82,-109.16 82,-148.8 82,-148.8 82,-148.8 3789.26,-148.8 3789.26,-148.8"/>
<polygon fill="black" stroke="black" points="3789.26,-152.3 3799.26,-148.8 3789.26,-145.3 3789.26,-152.3"/>
</g>
</g>
</svg>
